<svg xmlns="http://www.w3.org/2000/svg" xmlns:xlink="http://www.w3.org/1999/xlink" xmlns:lucid="lucid" width="1169" height="500"><g transform="translate(-519 0)" lucid:page-tab-id="0_0"><path d="M500 0h1500v500H500z" fill="#fff"/><path d="M1020 22a2 2 0 0 1 2-2h644a2 2 0 0 1 2 2v396a2 2 0 0 1-2 2h-644a2 2 0 0 1-2-2z" fill="#edf5ff"/><use xlink:href="#a" transform="matrix(1,0,0,1,1036,36) translate(0 16.69921875)"/><path d="M1618.4 96.23c1.4-1.38 2.7-2.76 4.1-4.15.4-.48.95-.97 1.37-1.46-.36-.55-.96-.95-1.5-1.18-1.02-.47-2.04-.32-3 .34-1.26.87-1.8 2.25-1.8 3.97.06.67.18 1.32.48 1.9l.36.58m1.57 1.3c.66.28 1.44.24 2.1.1.36-.18 1.26-.64 1.56-.57h.06l.05.03c.18.1.36.27.48.52.24.56.12 1.12-.36 1.44l-.12.12c-1.74 1.2-3.6 1.02-5.28-.08-.84-.53-1.44-1.33-1.92-2.28l-.12-.22c-1.08-2.3-.96-4.7.3-6.87.42-.74.96-1.34 1.62-1.78l.3-.17c1.62-1.12 3.36-1.05 5.04-.07.83.54 1.6 1.32 2.1 2.36l.05.18c.42.75-.06 1.42-.54 1.86-.6.52-1.13 1.15-1.67 1.7-1.26 1.24-2.46 2.5-3.66 3.74zm12.95-10.4h.18c.54 0 .9.45.9 1.1 0 .9-.72 1.1-1.32 1.1-.84 0-1.62.6-2.16 1.27-.72.82-1.02 1.87-1.02 3.04v5.24c0 .6-.3 1.1-.84 1.1h-.18c-.48 0-.84-.5-.84-1.1v-5.54c0-2.13.9-3.88 2.34-5.1.9-.7 1.86-1.1 2.94-1.1zm-22.66 3.73c.72-.84 1.38-1.7 2.1-2.52.24-.22.95-1.2 1.25-1.2h.37c.42.1.72.42.72.95v.2c0 .36-.3.8-.55 1.04l-1.26 1.55-2.22 2.64c.95 1.14 1.9 2.26 2.8 3.4.3.32.55.65.8.95.1.1.23.25.3.42.1.13.1.3.1.47v.28c-.05.5-.35.9-.77.9h-.17c-.3 0-.66-.42-.84-.64-.43-.48-.85-1-1.27-1.48l-1.37-1.63v2.6c0 .6-.3 1.1-.84 1.1h-.12c-.54 0-.84-.5-.84-1.1v-14.7c0-.6.3-1.07.84-1.07h.12c.54 0 .84.47.84 1.06v6.74zm-5.94-1.47c-.24-.16-.78-.2-1.08-.23-1.5-.06-2.58.95-3.24 2.55-.24.55-.3 1.14-.3 1.75 0 1.86.78 3.15 2.16 3.95.54.28 1.2.34 1.74.34.48 0 1.2-.36 1.62-.6l.06-.05h.36v.03c.42.1.78.4.78.93v.22c0 1.33-2.04 1.62-2.82 1.7-2.76.2-4.8-1.58-5.58-4.67-.12-.52-.17-1.06-.17-1.62v-.43c0-2.34 1-4.2 2.7-5.4.77-.56 1.6-.85 2.57-.85h.36c.96 0 1.86.34 2.64.98l.06.05.06.1c.06.16.18.36.18.57v.2c0 .56-.36.85-.78.95l-.06.02h-.12c-.24-.02-.84-.34-1.14-.48zm-16.55 4.1c0 1.66.66 2.86 1.86 3.73.54.4 1.14.58 1.8.58 1.32 0 2.34-.83 3.06-2.2.35-.65.47-1.38.47-2.13 0-1.54-.6-2.7-1.68-3.55-.6-.48-1.2-.7-1.93-.7-1.5 0-2.64.92-3.3 2.54-.18.56-.3 1.14-.3 1.75zm3.42-6.45h.23c2.1 0 3.72 1.22 4.74 3.42.4.86.6 1.8.6 2.82v.43c0 2.34-.96 4.2-2.64 5.4-.78.55-1.68.84-2.58.84h-.36c-2 0-3.55-1.16-4.57-3.18-.42-.95-.66-1.98-.66-3.07v-.44c0-2.36.96-4.2 2.64-5.42.8-.56 1.7-.83 2.6-.83zm-15.36 6.46c0 1.7.72 2.98 1.98 3.8.48.32 1.02.5 1.62.5 1.38 0 2.4-.77 3.12-2.2.36-.65.48-1.36.48-2.13 0-1.47-.55-2.6-1.56-3.48-.6-.52-1.26-.78-2.04-.78-1.5 0-2.58.92-3.24 2.54-.24.56-.36 1.14-.36 1.75zm7.2-4.84V84.1c0-.62.35-1.1.83-1.1h.18c.54 0 .84.48.84 1.1v9.63c0 2.34-.97 4.2-2.7 5.4-.78.55-1.62.84-2.58.84h-.36c-1.98 0-3.54-1.16-4.5-3.18-.48-.95-.72-1.98-.72-3.07v-.44c0-2.36.96-4.23 2.7-5.42.78-.56 1.62-.83 2.52-.83h.36c1.38 0 2.52.6 3.42 1.6zM1608.6 52.8h5.4v6.52h2.68c1.26 0 2.57-.24 3.73-.73.6-.25 1.27-.57 1.85-.98-.8-1.17-1.16-2.67-1.26-4.13-.17-2.04.14-4.63 1.3-6.17l.58-.77.63.6c1.74 1.63 3.16 3.9 3.37 6.5 2.05-.74 4.46-.53 6.25.68l.73.53-.36.9c-1.54 3.5-4.74 4.6-7.84 4.4-4.62 13.82-14.76 20.34-27 20.34-6.35 0-12.18-2.83-15.5-9.5l-.04-.13-.47-1.18c-1.1-2.96-1.47-6.16-1.26-9.4l.1-.98h4.56V52.8h5.36v-6.4h10.76V40h6.4v12.8z" stroke="#000" stroke-opacity="0" fill="#394d54"/><path d="M1626 55.2c.36-3.32-1.75-5.93-3.02-7.18-1.5 2.07-1.76 7.45.6 9.74-1.3 1.38-4.08 2.64-6.9 2.64h-34.4c-.25 3.52.25 6.76 1.46 9.52l.36.85c.25.5.55.97.85 1.45 1.4.12 2.67.15 3.9.12 2.36-.06 4.22-.4 5.7-1 .2-.07.44.06.54.3.04.26-.06.54-.26.64-.2.1-.4.16-.6.22-1.17.38-2.38.66-4 .78h-.1c-.04 0-.1 0-.14.03-.6.05-1.32.05-1.97.05-.76 0-1.5 0-2.32-.07l-.04.03c2.87 3.85 7.36 6.14 12.96 6.14 11.9 0 22-6.28 26.43-20.36 3.18.38 6.26-.6 7.62-3.8-2.22-1.54-5.05-1.04-6.66-.07z" stroke="#000" stroke-opacity="0" fill="#00aada"/><path d="M1626 55.2c.34-3.32-1.76-5.94-3-7.18-1.52 2.05-1.77 7.45.57 9.72-1.3 1.4-4.06 2.65-6.87 2.65h-32.37c-.13 5.37 1.55 9.48 4.52 11.94 2.35-.06 4.23-.4 5.7-1 .2-.08.46.05.5.32.08.25 0 .52-.25.62-.17.08-.38.14-.6.22-1.12.38-2.46.67-4.05.8l-.04-.04c4.07 2.48 9.93 2.45 16.68-.63 7.54-3.43 14.53-10.02 19.43-17.53-.07.02-.12.08-.2.1z" stroke="#000" stroke-opacity="0" fill="#24b8eb"/><path d="M1582.37 64.67c.2 1.87.68 3.64 1.37 5.25l.36.85c.25.5.53 1 .8 1.45 1.43.1 2.76.14 3.94.1 2.34-.05 4.24-.37 5.7-.98.2-.1.44.05.53.3.08.27-.05.55-.25.63-.2.1-.4.17-.6.23-1.14.4-2.47.66-4.05.78h-.2c-.6.06-1.3.07-1.98.07-.74 0-1.5 0-2.36-.06 2.87 3.84 7.4 6.14 13.02 6.14 10.16 0 19-4.6 24.15-14.77h-40.43z" stroke="#000" stroke-opacity="0" fill="#008bb8"/><path d="M1584.65 64.67c.6 3.3 2.08 5.9 4.2 7.66 2.32-.05 4.23-.38 5.68-1 .23-.07.47.07.53.32.07.25-.03.54-.23.63-.2.07-.4.16-.6.22-1.15.4-2.53.67-4.1.8 4.06 2.46 9.9 2.42 16.63-.66 4.07-1.86 7.96-4.63 11.5-7.97h-33.6z" stroke="#000" stroke-opacity="0" fill="#039bc6"/><path d="M1590.87 54.32h.36v4.62h-.37v-4.62zm-.7 0h.37v4.62h-.38v-4.62zm-.7 0h.37v4.62h-.38v-4.62zm-.72 0h.38v4.62h-.38v-4.62zm-.7 0h.38v4.62h-.4v-4.62zm-.7 0h.37v4.62h-.37v-4.62zm-.38-.46h4.65v5.54h-4.65v-5.54zM1596.23 47.92h.37v4.62h-.37v-4.62zm-.7 0h.38v4.62h-.38v-4.62zm-.7 0h.37v4.62h-.38v-4.62zm-.7 0h.37v4.62h-.38v-4.62zm-.72 0h.4v4.62h-.4v-4.62zm-.68 0h.37v4.62h-.38v-4.62zm-.4-.46h4.66V53h-4.65v-5.54z" stroke="#000" stroke-opacity="0" fill="#00acd3"/><path d="M1596.23 54.32h.37v4.62h-.37v-4.62zm-.7 0h.38v4.62h-.38v-4.62zm-.7 0h.37v4.62h-.38v-4.62zm-.7 0h.37v4.62h-.38v-4.62zm-.72 0h.4v4.62h-.4v-4.62zm-.68 0h.37v4.62h-.38v-4.62zm-.4-.46h4.66v5.54h-4.65v-5.54z" stroke="#000" stroke-opacity="0" fill="#20c2ef"/><path d="M1601.6 54.32h.37v4.62h-.37v-4.62zm-.7 0h.37v4.62h-.38v-4.62zm-.7 0h.37v4.62h-.38v-4.62zm-.72 0h.38v4.62h-.38v-4.62zm-.7 0h.38v4.62h-.38v-4.62zm-.7 0h.37v4.62h-.36v-4.62zm-.38-.46h4.65v5.54h-4.65v-5.54z" stroke="#000" stroke-opacity="0" fill="#00acd3"/><path d="M1601.6 47.92h.37v4.62h-.37v-4.62zm-.7 0h.37v4.62h-.38v-4.62zm-.7 0h.37v4.62h-.38v-4.62zm-.72 0h.38v4.62h-.38v-4.62zm-.7 0h.38v4.62h-.38v-4.62zm-.7 0h.37v4.62h-.36v-4.62zm-.38-.46h4.65V53h-4.65v-5.54zM1606.96 54.32h.37v4.62h-.37v-4.62zm-.7 0h.38v4.62h-.38v-4.62zm-.7 0h.38v4.62h-.4v-4.62zm-.7 0h.37v4.62h-.38v-4.62zm-.72 0h.4v4.62h-.4v-4.62zm-.7 0h.38v4.62h-.37v-4.62zm-.38-.46h4.66v5.54h-4.65v-5.54z" stroke="#000" stroke-opacity="0" fill="#20c2ef"/><path d="M1606.96 47.92h.37v4.62h-.37v-4.62zm-.7 0h.38v4.62h-.38v-4.62zm-.7 0h.38v4.62h-.4v-4.62zm-.7 0h.37v4.62h-.38v-4.62zm-.72 0h.4v4.62h-.4v-4.62zm-.7 0h.38v4.62h-.37v-4.62zm-.38-.46h4.66V53h-4.65v-5.54z" stroke="#000" stroke-opacity="0" fill="#00acd3"/><path d="M1606.96 41.53h.37v4.62h-.37v-4.62zm-.7 0h.38v4.62h-.38v-4.62zm-.7 0h.38v4.62h-.4v-4.62zm-.7 0h.37v4.62h-.38v-4.62zm-.72 0h.4v4.62h-.4v-4.62zm-.7 0h.38v4.62h-.37v-4.62zm-.38-.46h4.66v5.54h-4.65v-5.53z" stroke="#000" stroke-opacity="0" fill="#20c2ef"/><path d="M1612.33 54.32h.37v4.62h-.37v-4.62zm-.7 0h.37v4.62h-.38v-4.62zm-.7 0h.37v4.62h-.38v-4.62zm-.72 0h.4v4.62h-.4v-4.62zm-.7 0h.4v4.62h-.4v-4.62zm-.68 0h.37l-.02 4.62h-.36v-4.62zm-.4-.46h4.66v5.54h-4.65v-5.54z" stroke="#000" stroke-opacity="0" fill="#00acd3"/><path d="M1596.7 68.4c.7 0 1.28.67 1.28 1.52 0 .84-.58 1.53-1.3 1.53-.7 0-1.27-.7-1.27-1.53 0-.85.58-1.53 1.3-1.53" stroke="#000" stroke-opacity="0" fill="#d4edf1"/><path d="M1596.7 68.82c.1 0 .22.03.33.08-.12.07-.2.22-.2.38 0 .25.18.45.38.45.15 0 .28-.1.34-.23.05.13.07.27.07.42 0 .6-.4 1.1-.9 1.1s-.93-.5-.93-1.1c0-.6.42-1.1.92-1.1M1574 65.22h59.67c-1.3-.4-4.1-.93-3.63-2.95-2.38 3.26-8.06 2.28-9.5.67-1.6 2.78-10.9 1.72-11.57-.44-2.03 2.8-8.23 2.8-10.26 0-.65 2.16-9.96 3.22-11.57.44-1.43 1.6-7.1 2.6-9.5-.67.5 2.03-2.32 2.56-3.63 2.95" stroke="#000" stroke-opacity="0" fill="#394d54"/><path d="M1600.1 79.4c-3.18-1.8-4.9-4.23-5.9-6.9-1.17.4-2.6.66-4.24.77-.6.04-1.27.06-1.96.06-.78 0-1.62-.02-2.5-.08 2.93 3.47 6.5 6.14 13.14 6.2.5 0 .98-.02 1.46-.04z" stroke="#000" stroke-opacity="0" fill="#bfdbe0"/><path d="M1595.4 74.96c-.45-.7-.88-1.6-1.2-2.46-1.17.4-2.6.66-4.24.77 1.14.73 2.76 1.4 5.43 1.7z" stroke="#000" stroke-opacity="0" fill="#d4edf1"/><path d="M1480 146.5a6 6 0 0 1 6-6h128a6 6 0 0 1 6 6v88a6 6 0 0 1-6 6h-128a6 6 0 0 1-6-6z" stroke="#147eba" stroke-width="2" fill="#fff"/><use xlink:href="#b" transform="matrix(1,0,0,1,1485,145.5) translate(5.802469135802461 48.71527777777778)"/><path d="M1280 166a6 6 0 0 1 6-6h128a6 6 0 0 1 6 6v48a6 6 0 0 1-6 6h-128a6 6 0 0 1-6-6z" stroke="#82755b" stroke-width="2" fill="#fff"/><use xlink:href="#c" transform="matrix(1,0,0,1,1285,165) translate(4.598765432098759 30.27777777777778)"/><path d="M1040 166a6 6 0 0 1 6-6h128a6 6 0 0 1 6 6v48a6 6 0 0 1-6 6h-128a6 6 0 0 1-6-6z" stroke="#82755b" stroke-width="2" fill="#fff"/><use xlink:href="#d" transform="matrix(1,0,0,1,1045,165) translate(0.9259259259259238 30.27777777777778)"/><g filter="url(#e)"><path d="M1546 274a2 2 0 0 1 2-2h84a2 2 0 0 1 2 2v84a2 2 0 0 1-2 2h-84a2 2 0 0 1-2-2z" fill="#fff"/><path d="M1590 287.82v-6.55h-30v29.46h60v-22.9zm-18 19.63h-6v-3.27h6zm0-6.54h-6v-3.26h6zm0-6.54h-6v-3.27h6zm0-6.54h-6v-3.27h6zm12 19.63h-6v-3.27h6zm0-6.54h-6v-3.26h6zm0-6.54h-6v-3.27h6zm0-6.54h-6v-3.27h6zm30 19.63h-24v-3.27h6v-3.27h-6v-3.26h6v-3.28h-6v-3.27h24zm-6-13.1h-6v3.3h6zm0 6.56h-6v3.28h6z" fill="#757575"/><use xlink:href="#f" transform="matrix(1,0,0,1,1546,313) translate(12.061554199218747 28.05751953125)"/></g><path d="M540 156.25a6 6 0 0 1 6-6h148a6 6 0 0 1 6 6v67.5a6 6 0 0 1-6 6H546a6 6 0 0 1-6-6z" stroke="#147eba" stroke-width="2" fill="#fff"/><use xlink:href="#g" transform="matrix(1,0,0,1,545,155.25) translate(20.185185185185183 39.65277777777778)"/><path d="M1160 286a6 6 0 0 1 6-6h128a6 6 0 0 1 6 6v48a6 6 0 0 1-6 6h-128a6 6 0 0 1-6-6z" stroke="#008a0e" stroke-width="2" fill="#fff"/><use xlink:href="#h" transform="matrix(1,0,0,1,1165,285) translate(28.05555555555555 30.27777777777778)"/><path d="M690 106a6 6 0 0 1 6-6h228a6 6 0 0 1 6 6v48a6 6 0 0 1-6 6H696a6 6 0 0 1-6-6z" fill="none"/><use xlink:href="#i" transform="matrix(1,0,0,1,690,100) translate(39.276831111111136 33.484453333333335)"/><path d="M620 148.25v-33a6 6 0 0 1 6-6h367a6 6 0 0 1 6 6v57.98a6 6 0 0 0 6 6h33" stroke="#6a8759" stroke-width="2" fill="none"/><path d="M621 149.25h-2v-1.03h2zM1039 180.23h-1.03v-2h1.03z" stroke="#6a8759" stroke-width=".05" fill="#6a8759"/><path d="M1182 180.2h47.9a.1.1 0 0 1 .1.1.1.1 0 0 0 .1.1h47.9" stroke="#6a8759" stroke-width="2" fill="none"/><path d="M1182.03 181.2H1181v-2h1.03zM1279 181.4h-1.03v-2h1.03z" stroke="#6a8759" stroke-width=".05" fill="#6a8759"/><path d="M1422 181.2h25.07a2.93 2.93 0 0 0 2.93-2.93 2.93 2.93 0 0 1 2.93-2.94H1478" stroke="#6a8759" stroke-width="2" fill="none"/><path d="M1422.03 182.2H1421v-2h1.03zM1479 176.33h-1.03v-2h1.03z" stroke="#6a8759" stroke-width=".05" fill="#6a8759"/><path d="M600 66a6 6 0 0 1 6-6h368a6 6 0 0 1 6 6v48a6 6 0 0 1-6 6H606a6 6 0 0 1-6-6z" fill="none"/><use xlink:href="#j" transform="matrix(1,0,0,1,600,60) translate(45.41240740740745 33.55555555555556)"/><use xlink:href="#k" transform="matrix(1,0,0,1,600,60) translate(66.1037654320988 33.55555555555556)"/><use xlink:href="#l" transform="matrix(1,0,0,1,600,60) translate(140.96796296296296 33.55555555555556)"/><use xlink:href="#m" transform="matrix(1,0,0,1,600,60) translate(218.8445061728395 33.55555555555556)"/><use xlink:href="#n" transform="matrix(1,0,0,1,600,60) translate(259.28895061728394 33.55555555555556)"/><use xlink:href="#o" transform="matrix(1,0,0,1,600,60) translate(287.83216049382713 33.55555555555556)"/><path d="M620 231.75V284a6 6 0 0 0 6 6h367a6 6 0 0 0 6-6v-72.87a6 6 0 0 1 6-6h33" stroke="#cc4e00" stroke-width="2" fill="none"/><path d="M621 231.78h-2v-1.03h2zM1039 206.13h-1.03v-2h1.03z" stroke="#cc4e00" stroke-width=".05" fill="#cc4e00"/><use xlink:href="#p" transform="matrix(1,0,0,1,639.1142567804072,293.9999846538375) translate(0 13.937813333333333)"/><path d="M1182 204.32h47.96a.04.04 0 0 1 .04.04.04.04 0 0 0 .04.04H1278" stroke="#cc4e00" stroke-width="2" fill="none"/><path d="M1182.03 205.32H1181v-2h1.03zM1279 205.4h-1.03v-2h1.03z" stroke="#cc4e00" stroke-width=".05" fill="#cc4e00"/><path d="M1422 206h22.67a5.33 5.33 0 0 1 5.33 5.33 5.33 5.33 0 0 0 5.33 5.34H1478" stroke="#cc4e00" stroke-width="2" fill="none"/><path d="M1422.03 207H1421v-2h1.03zM1479 217.67h-1.03v-2h1.03z" stroke="#cc4e00" stroke-width=".05" fill="#cc4e00"/><path d="M640 238a6 6 0 0 1 6-6h328a6 6 0 0 1 6 6v48a6 6 0 0 1-6 6H646a6 6 0 0 1-6-6z" fill="none"/><use xlink:href="#q" transform="matrix(1,0,0,1,640,232) translate(9.901234567901298 22.888888888888893)"/><use xlink:href="#r" transform="matrix(1,0,0,1,640,232) translate(30.59259259259265 22.888888888888893)"/><use xlink:href="#s" transform="matrix(1,0,0,1,640,232) translate(105.45679012345681 22.888888888888893)"/><use xlink:href="#t" transform="matrix(1,0,0,1,640,232) translate(183.33333333333334 22.888888888888893)"/><use xlink:href="#u" transform="matrix(1,0,0,1,640,232) translate(223.72839506172838 22.888888888888893)"/><use xlink:href="#v" transform="matrix(1,0,0,1,640,232) translate(255.23456790123453 22.888888888888893)"/><use xlink:href="#w" transform="matrix(1,0,0,1,640,232) translate(79.90123456790127 44.22222222222222)"/><use xlink:href="#x" transform="matrix(1,0,0,1,640,232) translate(133.03703703703707 44.22222222222222)"/><use xlink:href="#y" transform="matrix(1,0,0,1,640,232) translate(169.4814814814815 44.22222222222222)"/><path d="M1302 316h225.5" stroke="#008573" stroke-width="2" fill="none"/><path d="M1302.03 317H1301v-2h1.03z" stroke="#008573" stroke-width=".05" fill="#008573"/><path d="M1542.76 316l-14.26 4.63v-9.26z" stroke="#008573" stroke-width="2" fill="#008573"/><use xlink:href="#z" transform="matrix(1,0,0,1,1332.9950067136228,320.0000300960318) translate(0 14.222222222222223)"/><use xlink:href="#A" transform="matrix(1,0,0,1,1332.9950067136228,320.0000300960318) translate(68.09876543209877 14.222222222222223)"/><use xlink:href="#B" transform="matrix(1,0,0,1,1332.9950067136228,320.0000300960318) translate(109.4814814814815 14.222222222222223)"/><use xlink:href="#C" transform="matrix(1,0,0,1,1332.9950067136228,320.0000300960318) translate(131.11111111111111 14.222222222222223)"/><use xlink:href="#D" transform="matrix(1,0,0,1,1332.9950067136228,320.0000300960318) translate(180.01 14.222222222222223)"/><path d="M635 346a6 6 0 0 1 6-6h338a6 6 0 0 1 6 6v128a6 6 0 0 1-6 6H641a6 6 0 0 1-6-6z" fill="none"/><g><use xlink:href="#E" transform="matrix(1,0,0,1,635,340) translate(1.9629629629630188 62.888888888888886)"/><use xlink:href="#F" transform="matrix(1,0,0,1,635,340) translate(83.79012345679016 62.888888888888886)"/><use xlink:href="#G" transform="matrix(1,0,0,1,635,340) translate(147.8888888888889 62.888888888888886)"/><use xlink:href="#H" transform="matrix(1,0,0,1,635,340) translate(220.87654320987653 62.888888888888886)"/><use xlink:href="#I" transform="matrix(1,0,0,1,635,340) translate(314.4567901234567 62.888888888888886)"/><use xlink:href="#J" transform="matrix(1,0,0,1,635,340) translate(55.197530864197546 84.22222222222223)"/><use xlink:href="#K" transform="matrix(1,0,0,1,635,340) translate(74.95061728395063 84.22222222222223)"/><use xlink:href="#L" transform="matrix(1,0,0,1,635,340) translate(104.58024691358025 84.22222222222223)"/><use xlink:href="#M" transform="matrix(1,0,0,1,635,340) translate(168.62962962962962 84.22222222222223)"/><use xlink:href="#N" transform="matrix(1,0,0,1,635,340) translate(229.76543209876542 84.22222222222223)"/><use xlink:href="#O" transform="matrix(1,0,0,1,635,340) translate(257.3703703703703 84.22222222222223)"/></g><path d="M1110 221.5V304a6 6 0 0 0 6 6h26.62" stroke="#008a0e" fill="none"/><path d="M1110.5 221.5h-1v-.5h1z" stroke="#008a0e" stroke-width=".05" fill="#008a0e"/><path d="M1157.38 310l-14.26 4.63v-9.26z" stroke="#008a0e" fill="#008a0e"/><path d="M1350 221.5V244a6 6 0 0 1-6 6h-108a6 6 0 0 0-6 6v6.62" stroke="#008a0e" fill="none"/><path d="M1350.5 221.5h-1v-.5h1z" stroke="#008a0e" stroke-width=".05" fill="#008a0e"/><path d="M1230 277.38l-4.63-14.26h9.27z" stroke="#008a0e" fill="#008a0e"/><path d="M1550 242v2a6 6 0 0 1-6 6h-308a6 6 0 0 0-6 6v6.62" stroke="#008a0e" fill="none"/><path d="M1550.5 242h-1v-.5h1z" stroke="#008a0e" stroke-width=".05" fill="#008a0e"/><path d="M1230 277.38l-4.63-14.26h9.27z" stroke="#008a0e" fill="#008a0e"/><g><use xlink:href="#P" transform="matrix(1,0,0,1,1369.7610977433649,253.99999999999997) translate(0 14.222222222222223)"/></g><path d="M554 231.25V364a6 6 0 0 0 6 6h544a6 6 0 0 0 6-6v-48a6 6 0 0 1 6-6h26.62" stroke="#008a0e" fill="none"/><path d="M554.5 231.26h-1v-.5h1z" stroke="#008a0e" stroke-width=".05" fill="#008a0e"/><path d="M1157.38 310l-14.26 4.63v-9.26z" stroke="#008a0e" fill="#008a0e"/><g><use xlink:href="#P" transform="matrix(1,0,0,1,770.0987654320987,344.6666666666667) translate(0 14.222222222222223)"/></g><defs><path d="M488 20C204 20 66-234 66-549c0-305 140-551 424-553 105 0 192 39 261 118v-552h290V0H780l-14-115C694-25 601 20 488 20zM355-528c0 176 51 314 207 314 89 0 152-38 189-113v-427c-36-75-98-113-187-113-139 0-209 113-209 339" id="Q"/><path d="M552-1102c254-4 435 134 435 383v469c1 103 15 180 43 233V0H738c-13-26-23-58-29-97C639-19 548 20 436 20 238 20 64-113 68-304c5-258 212-357 496-357h133c11-137-29-227-160-227-90 0-156 45-156 131H92c15-231 213-342 460-345zM357-325c0 76 61 124 142 124 88 0 168-45 198-105v-186H589c-152 2-232 51-232 167" id="R"/><path d="M529-185c94 0 168-33 168-114 0-35-18-63-53-83s-91-39-168-55C219-491 90-600 90-765c0-208 203-337 432-337 246 0 451 124 453 349H686c-2-91-62-143-165-143-86 0-151 41-153 117 0 32 16 57 46 77 63 43 257 69 335 100 151 60 229 153 229 291C978-13 554 93 282-28 162-81 60-190 56-344h274c5 106 86 159 199 159" id="S"/><path d="M750-685c-1-124-48-182-173-182-85 0-146 33-184 98V0H104v-1536h289v572c77-92 173-138 289-138 235 0 357 136 357 409V0H750v-685" id="T"/><path d="M673-507H110v-233h563v233" id="U"/><path d="M416 0H126v-1082h290V0zM271-1212c-92 0-162-61-162-150s68-149 162-149c93 0 162 60 162 149s-70 150-162 150" id="V"/><path d="M750-692c-1-124-48-174-173-175-81 0-142 35-183 104V0H105v-1082h272l9 125c77-97 181-145 311-145 244 0 342 151 342 403V0H750v-692" id="W"/><path d="M457-330c2 83 25 111 111 112 32 0 60-2 85-7V-6c-57 17-115 26-175 26-203 0-310-102-310-307v-583H10v-212h158v-266h289v266h185v212H457v540" id="X"/><path d="M1031-175C952-60 797 20 609 20 287 20 60-206 72-543c12-330 180-559 505-559 309 0 482 214 477 537v118H365c15 134 115 234 263 234 111 0 198-40 261-121zM770-644c5-139-62-226-194-224-130 1-191 97-208 224h402" id="Y"/><path d="M719-811c-143-24-279 1-319 103V0H111v-1082h273l8 129c74-124 180-175 331-136" id="Z"/><path d="M416 0H126v-1536h290V0" id="aa"/><path d="M1052-393l142-689h279L1197 0H955L750-681 545 0H304L28-1082h279l141 688 198-688h209" id="ab"/><path d="M579 20C257 20 58-214 66-551c8-331 182-551 511-551 324 0 514 231 514 572 0 319-198 550-512 550zm-2-888c-169 0-222 141-222 338 0 181 61 317 224 317 170 0 223-137 223-338 0-178-64-317-225-317" id="ac"/><path d="M504-434L400-330V0H111v-1536h289v851c106-137 222-264 333-397h347L689-631 1114 0H782" id="ad"/><g id="a"><use transform="matrix(0.0087890625,0,0,0.0087890625,0,0)" xlink:href="#Q"/><use transform="matrix(0.0087890625,0,0,0.0087890625,10.142578125,0)" xlink:href="#R"/><use transform="matrix(0.0087890625,0,0,0.0087890625,19.79296875,0)" xlink:href="#S"/><use transform="matrix(0.0087890625,0,0,0.0087890625,29.0478515625,0)" xlink:href="#T"/><use transform="matrix(0.0087890625,0,0,0.0087890625,39.1201171875,0)" xlink:href="#U"/><use transform="matrix(0.0087890625,0,0,0.0087890625,46.0986328125,0)" xlink:href="#V"/><use transform="matrix(0.0087890625,0,0,0.0087890625,50.87109375,0)" xlink:href="#W"/><use transform="matrix(0.0087890625,0,0,0.0087890625,60.9521484375,0)" xlink:href="#X"/><use transform="matrix(0.0087890625,0,0,0.0087890625,67.0341796875,0)" xlink:href="#Y"/><use transform="matrix(0.0087890625,0,0,0.0087890625,76.763671875,0)" xlink:href="#Z"/><use transform="matrix(0.0087890625,0,0,0.0087890625,83.3291015625,0)" xlink:href="#W"/><use transform="matrix(0.0087890625,0,0,0.0087890625,93.41015625,0)" xlink:href="#R"/><use transform="matrix(0.0087890625,0,0,0.0087890625,103.060546875,0)" xlink:href="#aa"/><use transform="matrix(0.0087890625,0,0,0.0087890625,107.8330078125,0)" xlink:href="#U"/><use transform="matrix(0.0087890625,0,0,0.0087890625,114.8115234375,0)" xlink:href="#W"/><use transform="matrix(0.0087890625,0,0,0.0087890625,124.892578125,0)" xlink:href="#Y"/><use transform="matrix(0.0087890625,0,0,0.0087890625,134.6220703125,0)" xlink:href="#X"/><use transform="matrix(0.0087890625,0,0,0.0087890625,140.7041015625,0)" xlink:href="#ab"/><use transform="matrix(0.0087890625,0,0,0.0087890625,153.931640625,0)" xlink:href="#ac"/><use transform="matrix(0.0087890625,0,0,0.0087890625,164.109375,0)" xlink:href="#Z"/><use transform="matrix(0.0087890625,0,0,0.0087890625,170.6748046875,0)" xlink:href="#ad"/></g><path fill="#147eba" d="M88-194c31-1 46 15 58 34l-1-101h50l1 261h-48c-2-10 0-23-3-31C134-8 116 4 84 4 32 4 16-41 15-95c0-56 19-97 73-99zm17 164c33 0 40-30 41-66 1-37-9-64-41-64s-38 30-39 65c0 43 13 65 39 65" id="ae"/><path fill="#147eba" d="M133-34C117-15 103 5 69 4 32 3 11-16 11-54c-1-60 55-63 116-61 1-26-3-47-28-47-18 1-26 9-28 27l-52-2c7-38 36-58 82-57s74 22 75 68l1 82c-1 14 12 18 25 15v27c-30 8-71 5-69-32zm-48 3c29 0 43-24 42-57-32 0-66-3-65 30 0 17 8 27 23 27" id="af"/><path fill="#147eba" d="M137-138c1-29-70-34-71-4 15 46 118 7 119 86 1 83-164 76-172 9l43-7c4 19 20 25 44 25 33 8 57-30 24-41C81-84 22-81 20-136c-2-80 154-74 161-7" id="ag"/><path fill="#147eba" d="M114-157C55-157 80-60 75 0H25v-261h50l-1 109c12-26 28-41 61-42 86-1 58 113 63 194h-50c-7-57 23-157-34-157" id="ah"/><path fill="#147eba" d="M185-48c-13 30-37 53-82 52C43 2 14-33 14-96s30-98 90-98c62 0 83 45 84 108H66c0 31 8 55 39 56 18 0 30-7 34-22zm-45-69c5-46-57-63-70-21-2 6-4 13-4 21h74" id="ai"/><path fill="#147eba" d="M135-150c-39-12-60 13-60 57V0H25l-1-190h47c2 13-1 29 3 40 6-28 27-53 61-41v41" id="aj"/><path fill="#147eba" d="M128 0H69L1-190h53L99-40l48-150h52" id="ak"/><g id="b"><use transform="matrix(0.06172839506172839,0,0,0.06172839506172839,0,0)" xlink:href="#ae"/><use transform="matrix(0.06172839506172839,0,0,0.06172839506172839,13.518518518518517,0)" xlink:href="#af"/><use transform="matrix(0.06172839506172839,0,0,0.06172839506172839,25.864197530864196,0)" xlink:href="#ag"/><use transform="matrix(0.06172839506172839,0,0,0.06172839506172839,38.20987654320987,0)" xlink:href="#ah"/><use transform="matrix(0.06172839506172839,0,0,0.06172839506172839,51.72839506172839,0)" xlink:href="#ag"/><use transform="matrix(0.06172839506172839,0,0,0.06172839506172839,64.07407407407408,0)" xlink:href="#ai"/><use transform="matrix(0.06172839506172839,0,0,0.06172839506172839,76.41975308641976,0)" xlink:href="#aj"/><use transform="matrix(0.06172839506172839,0,0,0.06172839506172839,85.06172839506173,0)" xlink:href="#ak"/><use transform="matrix(0.06172839506172839,0,0,0.06172839506172839,97.40740740740742,0)" xlink:href="#ai"/><use transform="matrix(0.06172839506172839,0,0,0.06172839506172839,109.7530864197531,0)" xlink:href="#aj"/></g><path fill="#82755b" d="M96-169c-40 0-48 33-48 73s9 75 48 75c24 0 41-14 43-38l32 2c-6 37-31 61-74 61-59 0-76-41-82-99-10-93 101-131 147-64 4 7 5 14 7 22l-32 3c-4-21-16-35-41-35" id="al"/><path fill="#82755b" d="M100-194c62-1 85 37 85 99 1 63-27 99-86 99S16-35 15-95c0-66 28-99 85-99zM99-20c44 1 53-31 53-75 0-43-8-75-51-75s-53 32-53 75 10 74 51 75" id="am"/><path fill="#82755b" d="M117-194c89-4 53 116 60 194h-32v-121c0-31-8-49-39-48C34-167 62-67 57 0H25l-1-190h30c1 10-1 24 2 32 11-22 29-35 61-36" id="an"/><path fill="#82755b" d="M59-47c-2 24 18 29 38 22v24C64 9 27 4 27-40v-127H5v-23h24l9-43h21v43h35v23H59v120" id="ao"/><path fill="#82755b" d="M114-163C36-179 61-72 57 0H25l-1-190h30c1 12-1 29 2 39 6-27 23-49 58-41v29" id="ap"/><path fill="#82755b" d="M24 0v-261h32V0H24" id="aq"/><path fill="#82755b" d="M115-194c55 1 70 41 70 98S169 2 115 4C84 4 66-9 55-30l1 105H24l-1-265h31l2 30c10-21 28-34 59-34zm-8 174c40 0 45-34 45-75s-6-73-45-74c-42 0-51 32-51 76 0 43 10 73 51 73" id="ar"/><path fill="#82755b" d="M141 0L90-78 38 0H4l68-98-65-92h35l48 74 47-74h35l-64 92 68 98h-35" id="as"/><path fill="#82755b" d="M179-190L93 31C79 59 56 82 12 73V49c39 6 53-20 64-50L1-190h34L92-34l54-156h33" id="at"/><g id="c"><use transform="matrix(0.06172839506172839,0,0,0.06172839506172839,0,0)" xlink:href="#al"/><use transform="matrix(0.06172839506172839,0,0,0.06172839506172839,11.11111111111111,0)" xlink:href="#am"/><use transform="matrix(0.06172839506172839,0,0,0.06172839506172839,23.45679012345679,0)" xlink:href="#an"/><use transform="matrix(0.06172839506172839,0,0,0.06172839506172839,35.80246913580247,0)" xlink:href="#ao"/><use transform="matrix(0.06172839506172839,0,0,0.06172839506172839,41.97530864197531,0)" xlink:href="#ap"/><use transform="matrix(0.06172839506172839,0,0,0.06172839506172839,49.32098765432099,0)" xlink:href="#am"/><use transform="matrix(0.06172839506172839,0,0,0.06172839506172839,61.666666666666664,0)" xlink:href="#aq"/><use transform="matrix(0.06172839506172839,0,0,0.06172839506172839,66.5432098765432,0)" xlink:href="#ar"/><use transform="matrix(0.06172839506172839,0,0,0.06172839506172839,78.88888888888889,0)" xlink:href="#ap"/><use transform="matrix(0.06172839506172839,0,0,0.06172839506172839,86.23456790123457,0)" xlink:href="#am"/><use transform="matrix(0.06172839506172839,0,0,0.06172839506172839,98.58024691358025,0)" xlink:href="#as"/><use transform="matrix(0.06172839506172839,0,0,0.06172839506172839,109.69135802469137,0)" xlink:href="#at"/></g><path fill="#82755b" d="M101-234c-31-9-42 10-38 44h38v23H63V0H32v-167H5v-23h27c-7-52 17-82 69-68v24" id="au"/><path fill="#82755b" d="M206 0h-36l-40-164L89 0H53L-1-190h32L70-26l43-164h34l41 164 42-164h31" id="av"/><path fill="#82755b" d="M141-36C126-15 110 5 73 4 37 3 15-17 15-53c-1-64 63-63 125-63 3-35-9-54-41-54-24 1-41 7-42 31l-33-3c5-37 33-52 76-52 45 0 72 20 72 64v82c-1 20 7 32 28 27v20c-31 9-61-2-59-35zM48-53c0 20 12 33 32 33 41-3 63-29 60-74-43 2-92-5-92 41" id="aw"/><path fill="#82755b" d="M85-194c31 0 48 13 60 33l-1-100h32l1 261h-30c-2-10 0-23-3-31C134-8 116 4 85 4 32 4 16-35 15-94c0-66 23-100 70-100zm9 24c-40 0-46 34-46 75 0 40 6 74 45 74 42 0 51-32 51-76 0-42-9-74-50-73" id="ax"/><g id="d"><use transform="matrix(0.06172839506172839,0,0,0.06172839506172839,0,0)" xlink:href="#au"/><use transform="matrix(0.06172839506172839,0,0,0.06172839506172839,6.172839506172839,0)" xlink:href="#am"/><use transform="matrix(0.06172839506172839,0,0,0.06172839506172839,18.51851851851852,0)" xlink:href="#ap"/><use transform="matrix(0.06172839506172839,0,0,0.06172839506172839,25.864197530864196,0)" xlink:href="#av"/><use transform="matrix(0.06172839506172839,0,0,0.06172839506172839,41.85185185185185,0)" xlink:href="#aw"/><use transform="matrix(0.06172839506172839,0,0,0.06172839506172839,54.197530864197525,0)" xlink:href="#ap"/><use transform="matrix(0.06172839506172839,0,0,0.06172839506172839,61.5432098765432,0)" xlink:href="#ax"/><use transform="matrix(0.06172839506172839,0,0,0.06172839506172839,73.88888888888889,0)" xlink:href="#ar"/><use transform="matrix(0.06172839506172839,0,0,0.06172839506172839,86.23456790123457,0)" xlink:href="#ap"/><use transform="matrix(0.06172839506172839,0,0,0.06172839506172839,93.58024691358025,0)" xlink:href="#am"/><use transform="matrix(0.06172839506172839,0,0,0.06172839506172839,105.92592592592594,0)" xlink:href="#as"/><use transform="matrix(0.06172839506172839,0,0,0.06172839506172839,117.03703703703705,0)" xlink:href="#at"/></g><path d="M703-1476c426 0 599 333 586 795-11 408-187 701-584 701-422 0-587-333-587-793 0-282 106-507 280-617 89-56 190-86 305-86zm2 1333c312 0 393-279 393-632 0-308-116-536-395-536-269 0-394 232-394 523v107c-4 298 123 538 396 538" id="ay"/><path d="M632-1102c291 0 422 251 422 573 0 297-141 548-419 549-131 0-235-42-310-125v521H140v-1498h169l9 120c75-93 180-140 314-140zm-53 971c207 0 290-180 290-419 0-218-92-395-292-395-112 0-196 50-252 149v517c55 99 140 148 254 148" id="az"/><path d="M599-131c141 0 220-65 285-146l113 88C906-50 770 20 589 20 281 21 93-214 93-545c0-223 93-397 233-485 74-48 154-72 240-72 300 2 449 218 445 537v77H278c0 197 129 357 321 357zm227-509c-3-180-88-310-260-310-170 0-264 140-282 310h542" id="aA"/><path d="M589-945c-131 0-219 81-264 174V0H140v-1082h175l6 136c83-104 191-156 324-156 229 0 346 129 346 387V0H806v-716c-2-153-65-229-217-229" id="aB"/><path d="M1175-1298H707V0H516v-1298H49v-158h1126v158" id="aC"/><path d="M631-137c179 0 314-70 314-231 0-71-25-127-75-166s-141-77-272-115c-165-47-285-106-360-175s-112-154-112-255c0-245 231-397 495-397 206 0 369 89 449 218 43 68 65 142 65 223H942c0-184-129-283-321-283-172 0-299 76-301 236 0 59 26 109 76 150s135 78 256 113c205 59 345 116 436 256 35 53 50 119 50 193-2 256-231 398-507 390C333 12 90-129 80-422h193c0 187 160 285 358 285" id="aD"/><path d="M1222-777c17 480-206 763-650 777H169v-1456h411c408 9 627 269 642 679zm-190 4c3-312-149-522-447-525H361v1141h202c308 0 473-209 469-531v-85" id="aE"/><path d="M1160-420C1159-145 963 0 674 0H169v-1456h476c294-1 476 112 476 388 0 153-99 253-216 302 146 38 255 167 255 346zM678-157c171 2 289-95 289-261 0-175-95-263-286-263H361v524h317zm250-912c-2-172-104-229-283-229H361v463h290c157 3 278-84 277-234" id="aF"/><g id="f"><use transform="matrix(0.0065107421875,0,0,0.0065107421875,0,0)" xlink:href="#ay"/><use transform="matrix(0.0065107421875,0,0,0.0065107421875,9.167125,0)" xlink:href="#az"/><use transform="matrix(0.0065107421875,0,0,0.0065107421875,16.6479677734375,0)" xlink:href="#aA"/><use transform="matrix(0.0065107421875,0,0,0.0065107421875,23.712123046875,0)" xlink:href="#aB"/><use transform="matrix(0.0065107421875,0,0,0.0065107421875,31.06926171875,0)" xlink:href="#aC"/><use transform="matrix(0.0065107421875,0,0,0.0065107421875,38.921216796875,0)" xlink:href="#aD"/><use transform="matrix(0.0065107421875,0,0,0.0065107421875,46.8317685546875,0)" xlink:href="#aE"/><use transform="matrix(0.0065107421875,0,0,0.0065107421875,55.575695312499995,0)" xlink:href="#aF"/></g><filter id="e" filterUnits="objectBoundingBox" x="-.02" y="-.01" width="1.03" height="1.03"><feOffset result="offOut" in="SourceAlpha" dy="1"/><feGaussianBlur result="blurOut" in="offOut" stdDeviation=".75"/><feColorMatrix result="colorOut" in="blurOut" values="0 0 0 0 0 0 0 0 0 0 0 0 0 0 0 0 0 0 0.4 0"/><feBlend in="SourceGraphic" in2="colorOut"/></filter><path fill="#147eba" d="M190-63c-7 42-38 67-86 67-59 0-84-38-90-98-12-110 154-137 174-36l-49 2c-2-19-15-32-35-32-30 0-35 28-38 64-6 74 65 87 74 30" id="aG"/><path fill="#147eba" d="M25 0v-261h50V0H25" id="aH"/><path fill="#147eba" d="M25-224v-37h50v37H25zM25 0v-190h50V0H25" id="aI"/><path fill="#147eba" d="M135-194c87-1 58 113 63 194h-50c-7-57 23-157-34-157-59 0-34 97-39 157H25l-1-190h47c2 12-1 28 3 38 12-26 28-41 61-42" id="aJ"/><path fill="#147eba" d="M115-3C79 11 28 4 28-45v-112H4v-33h27l15-45h31v45h36v33H77v99c-1 23 16 31 38 25v30" id="aK"/><g id="g"><use transform="matrix(0.06172839506172839,0,0,0.06172839506172839,0,0)" xlink:href="#ae"/><use transform="matrix(0.06172839506172839,0,0,0.06172839506172839,13.518518518518517,0)" xlink:href="#af"/><use transform="matrix(0.06172839506172839,0,0,0.06172839506172839,25.864197530864196,0)" xlink:href="#ag"/><use transform="matrix(0.06172839506172839,0,0,0.06172839506172839,38.20987654320987,0)" xlink:href="#ah"/><use transform="matrix(0.06172839506172839,0,0,0.06172839506172839,51.72839506172839,0)" xlink:href="#aG"/><use transform="matrix(0.06172839506172839,0,0,0.06172839506172839,64.07407407407408,0)" xlink:href="#aH"/><use transform="matrix(0.06172839506172839,0,0,0.06172839506172839,70.24691358024691,0)" xlink:href="#aI"/><use transform="matrix(0.06172839506172839,0,0,0.06172839506172839,76.41975308641975,0)" xlink:href="#ai"/><use transform="matrix(0.06172839506172839,0,0,0.06172839506172839,88.76543209876543,0)" xlink:href="#aJ"/><use transform="matrix(0.06172839506172839,0,0,0.06172839506172839,102.28395061728395,0)" xlink:href="#aK"/></g><path fill="#008a0e" d="M210-169c-67 3-38 105-44 169h-31v-121c0-29-5-50-35-48C34-165 62-65 56 0H25l-1-190h30c1 10-1 24 2 32 10-44 99-50 107 0 11-21 27-35 58-36 85-2 47 119 55 194h-31v-121c0-29-5-49-35-48" id="aL"/><path fill="#008a0e" d="M100-194c62-1 85 37 85 99 1 63-27 99-86 99S16-35 15-95c0-66 28-99 85-99zM99-20c44 1 53-31 53-75 0-43-8-75-51-75s-53 32-53 75 10 74 51 75" id="aM"/><path fill="#008a0e" d="M117-194c89-4 53 116 60 194h-32v-121c0-31-8-49-39-48C34-167 62-67 57 0H25l-1-190h30c1 10-1 24 2 32 11-22 29-35 61-36" id="aN"/><path fill="#008a0e" d="M24-231v-30h32v30H24zM24 0v-190h32V0H24" id="aO"/><path fill="#008a0e" d="M59-47c-2 24 18 29 38 22v24C64 9 27 4 27-40v-127H5v-23h24l9-43h21v43h35v23H59v120" id="aP"/><path fill="#008a0e" d="M114-163C36-179 61-72 57 0H25l-1-190h30c1 12-1 29 2 39 6-27 23-49 58-41v29" id="aQ"/><g id="h"><use transform="matrix(0.06172839506172839,0,0,0.06172839506172839,0,0)" xlink:href="#aL"/><use transform="matrix(0.06172839506172839,0,0,0.06172839506172839,18.456790123456788,0)" xlink:href="#aM"/><use transform="matrix(0.06172839506172839,0,0,0.06172839506172839,30.80246913580247,0)" xlink:href="#aN"/><use transform="matrix(0.06172839506172839,0,0,0.06172839506172839,43.148148148148145,0)" xlink:href="#aO"/><use transform="matrix(0.06172839506172839,0,0,0.06172839506172839,48.02469135802469,0)" xlink:href="#aP"/><use transform="matrix(0.06172839506172839,0,0,0.06172839506172839,54.19753086419753,0)" xlink:href="#aM"/><use transform="matrix(0.06172839506172839,0,0,0.06172839506172839,66.54320987654322,0)" xlink:href="#aQ"/></g><path fill="#6a8759" d="M0 4l72-265h28L28 4H0" id="aR"/><path fill="#6a8759" d="M210-169c-67 3-38 105-44 169h-31v-121c0-29-5-50-35-48C34-165 62-65 56 0H25l-1-190h30c1 10-1 24 2 32 10-44 99-50 107 0 11-21 27-35 58-36 85-2 47 119 55 194h-31v-121c0-29-5-49-35-48" id="aS"/><path fill="#6a8759" d="M141-36C126-15 110 5 73 4 37 3 15-17 15-53c-1-64 63-63 125-63 3-35-9-54-41-54-24 1-41 7-42 31l-33-3c5-37 33-52 76-52 45 0 72 20 72 64v82c-1 20 7 32 28 27v20c-31 9-61-2-59-35zM48-53c0 20 12 33 32 33 41-3 63-29 60-74-43 2-92-5-92 41" id="aT"/><path fill="#6a8759" d="M117-194c89-4 53 116 60 194h-32v-121c0-31-8-49-39-48C34-167 62-67 57 0H25l-1-190h30c1 10-1 24 2 32 11-22 29-35 61-36" id="aU"/><path fill="#6a8759" d="M24-231v-30h32v30H24zM24 0v-190h32V0H24" id="aV"/><path fill="#6a8759" d="M101-234c-31-9-42 10-38 44h38v23H63V0H32v-167H5v-23h27c-7-52 17-82 69-68v24" id="aW"/><path fill="#6a8759" d="M100-194c63 0 86 42 84 106H49c0 40 14 67 53 68 26 1 43-12 49-29l28 8c-11 28-37 45-77 45C44 4 14-33 15-96c1-61 26-98 85-98zm52 81c6-60-76-77-97-28-3 7-6 17-6 28h103" id="aX"/><path fill="#6a8759" d="M135-143c-3-34-86-38-87 0 15 53 115 12 119 90S17 21 10-45l28-5c4 36 97 45 98 0-10-56-113-15-118-90-4-57 82-63 122-42 12 7 21 19 24 35" id="aY"/><path fill="#6a8759" d="M59-47c-2 24 18 29 38 22v24C64 9 27 4 27-40v-127H5v-23h24l9-43h21v43h35v23H59v120" id="aZ"/><path fill="#6a8759" d="M39-94c74 12-11 154 75 146v23c-44 4-70-10-70-52C44-23 55-84 6-82v-22c81 4-7-162 84-157h24v23c-82-15-2 131-75 144" id="ba"/><path fill="#6a8759" d="M108 0H70L1-190h34L89-25l56-165h34" id="bb"/><path fill="#6a8759" d="M85-194c31 0 48 13 60 33l-1-100h32l1 261h-30c-2-10 0-23-3-31C134-8 116 4 85 4 32 4 16-35 15-94c0-66 23-100 70-100zm9 24c-40 0-46 34-46 75 0 40 6 74 45 74 42 0 51-32 51-76 0-42-9-74-50-73" id="bc"/><path fill="#6a8759" d="M100-194c62-1 85 37 85 99 1 63-27 99-86 99S16-35 15-95c0-66 28-99 85-99zM99-20c44 1 53-31 53-75 0-43-8-75-51-75s-53 32-53 75 10 74 51 75" id="bd"/><path fill="#6a8759" d="M-5 72V49h209v23H-5" id="be"/><path fill="#6a8759" d="M84 4C-5 8 30-112 23-190h32v120c0 31 7 50 39 49 72-2 45-101 50-169h31l1 190h-30c-1-10 1-25-2-33-11 22-28 36-60 37" id="bf"/><path fill="#6a8759" d="M76-40C78 24 84 88 6 75V52C86 64 9-79 80-94c-40-6-34-59-34-106 1-29-11-41-40-38v-23c44-4 70 10 70 52 0 47-12 108 38 105v22c-26 1-39 14-38 42" id="bg"/><g id="i"><use transform="matrix(0.04839518518518518,0,0,0.04839518518518518,0,0)" xlink:href="#aR"/><use transform="matrix(0.04839518518518518,0,0,0.04839518518518518,4.839518518518518,0)" xlink:href="#aS"/><use transform="matrix(0.04839518518518518,0,0,0.04839518518518518,19.309678888888886,0)" xlink:href="#aT"/><use transform="matrix(0.04839518518518518,0,0,0.04839518518518518,28.988715925925924,0)" xlink:href="#aU"/><use transform="matrix(0.04839518518518518,0,0,0.04839518518518518,38.66775296296296,0)" xlink:href="#aV"/><use transform="matrix(0.04839518518518518,0,0,0.04839518518518518,42.490972592592584,0)" xlink:href="#aW"/><use transform="matrix(0.04839518518518518,0,0,0.04839518518518518,47.3304911111111,0)" xlink:href="#aX"/><use transform="matrix(0.04839518518518518,0,0,0.04839518518518518,57.00952814814813,0)" xlink:href="#aY"/><use transform="matrix(0.04839518518518518,0,0,0.04839518518518518,65.72066148148147,0)" xlink:href="#aZ"/><use transform="matrix(0.04839518518518518,0,0,0.04839518518518518,70.56017999999999,0)" xlink:href="#aR"/><use transform="matrix(0.04839518518518518,0,0,0.04839518518518518,75.3996985185185,0)" xlink:href="#ba"/><use transform="matrix(0.04839518518518518,0,0,0.04839518518518518,81.20712074074072,0)" xlink:href="#bb"/><use transform="matrix(0.04839518518518518,0,0,0.04839518518518518,89.91825407407406,0)" xlink:href="#aV"/><use transform="matrix(0.04839518518518518,0,0,0.04839518518518518,93.74147370370369,0)" xlink:href="#bc"/><use transform="matrix(0.04839518518518518,0,0,0.04839518518518518,103.42051074074072,0)" xlink:href="#aX"/><use transform="matrix(0.04839518518518518,0,0,0.04839518518518518,113.09954777777777,0)" xlink:href="#bd"/><use transform="matrix(0.04839518518518518,0,0,0.04839518518518518,122.7785848148148,0)" xlink:href="#be"/><use transform="matrix(0.04839518518518518,0,0,0.04839518518518518,132.45762185185183,0)" xlink:href="#bf"/><use transform="matrix(0.04839518518518518,0,0,0.04839518518518518,142.13665888888886,0)" xlink:href="#aV"/><use transform="matrix(0.04839518518518518,0,0,0.04839518518518518,145.95987851851848,0)" xlink:href="#bc"/><use transform="matrix(0.04839518518518518,0,0,0.04839518518518518,155.6389155555555,0)" xlink:href="#bg"/></g><path fill="#6a8759" d="M23 0v-37h61v-169l-59 37v-38l62-41h46v211h57V0H23" id="bh"/><path fill="#6a8759" d="M35-132v-50h50v50H35zM35 0v-49h50V0H35" id="bi"/><g id="j"><use transform="matrix(0.0493827160493827,0,0,0.0493827160493827,0,0)" xlink:href="#bh"/><use transform="matrix(0.0493827160493827,0,0,0.0493827160493827,9.876543209876539,0)" xlink:href="#bi"/></g><path fill="#6a8759" d="M240-174c0 40-23 61-54 70L253 0h-59l-57-94H76V0H24v-248c93 4 217-23 216 74zM76-134c48-2 112 12 112-38 0-48-66-32-112-35v73" id="bj"/><path fill="#6a8759" d="M185-48c-13 30-37 53-82 52C43 2 14-33 14-96s30-98 90-98c62 0 83 45 84 108H66c0 31 8 55 39 56 18 0 30-7 34-22zm-45-69c5-46-57-63-70-21-2 6-4 13-4 21h74" id="bk"/><path fill="#6a8759" d="M84 4C32 4 15-41 15-95c0-55 18-99 73-99 29 0 47 12 58 34l2-30h48l-1 265h-49V-32C136-9 114 4 84 4zm21-34c32 0 41-29 41-66 0-36-9-64-40-64-33 0-39 30-40 65 0 43 13 65 39 65" id="bl"/><path fill="#6a8759" d="M85 4C-2 5 27-109 22-190h50c7 57-23 150 33 157 60-5 35-97 40-157h50l1 190h-47c-2-12 1-28-3-38-12 25-28 42-61 42" id="bm"/><path fill="#6a8759" d="M137-138c1-29-70-34-71-4 15 46 118 7 119 86 1 83-164 76-172 9l43-7c4 19 20 25 44 25 33 8 57-30 24-41C81-84 22-81 20-136c-2-80 154-74 161-7" id="bn"/><path fill="#6a8759" d="M115-3C79 11 28 4 28-45v-112H4v-33h27l15-45h31v45h36v33H77v99c-1 23 16 31 38 25v30" id="bo"/><g id="k"><use transform="matrix(0.0493827160493827,0,0,0.0493827160493827,0,0)" xlink:href="#bj"/><use transform="matrix(0.0493827160493827,0,0,0.0493827160493827,12.79012345679012,0)" xlink:href="#bk"/><use transform="matrix(0.0493827160493827,0,0,0.0493827160493827,22.666666666666657,0)" xlink:href="#bl"/><use transform="matrix(0.0493827160493827,0,0,0.0493827160493827,33.48148148148147,0)" xlink:href="#bm"/><use transform="matrix(0.0493827160493827,0,0,0.0493827160493827,44.296296296296276,0)" xlink:href="#bk"/><use transform="matrix(0.0493827160493827,0,0,0.0493827160493827,54.17283950617281,0)" xlink:href="#bn"/><use transform="matrix(0.0493827160493827,0,0,0.0493827160493827,64.04938271604935,0)" xlink:href="#bo"/></g><path fill="#6a8759" d="M220-157c-53 9-28 100-34 157h-49v-107c1-27-5-49-29-50C55-147 81-57 75 0H25l-1-190h47c2 12-1 28 3 38 10-53 101-56 108 0 13-22 24-43 59-42 82 1 51 116 57 194h-49v-107c-1-25-5-48-29-50" id="bp"/><path fill="#6a8759" d="M133-34C117-15 103 5 69 4 32 3 11-16 11-54c-1-60 55-63 116-61 1-26-3-47-28-47-18 1-26 9-28 27l-52-2c7-38 36-58 82-57s74 22 75 68l1 82c-1 14 12 18 25 15v27c-30 8-71 5-69-32zm-48 3c29 0 43-24 42-57-32 0-66-3-65 30 0 17 8 27 23 27" id="bq"/><path fill="#6a8759" d="M135-194c87-1 58 113 63 194h-50c-7-57 23-157-34-157-59 0-34 97-39 157H25l-1-190h47c2 12-1 28 3 38 12-26 28-41 61-42" id="br"/><path fill="#6a8759" d="M25-224v-37h50v37H25zM25 0v-190h50V0H25" id="bs"/><path fill="#6a8759" d="M121-226c-27-7-43 5-38 36h38v33H83V0H34v-157H6v-33h28c-9-59 32-81 87-68v32" id="bt"/><g id="l"><use transform="matrix(0.0493827160493827,0,0,0.0493827160493827,0,0)" xlink:href="#bp"/><use transform="matrix(0.0493827160493827,0,0,0.0493827160493827,15.802469135802465,0)" xlink:href="#bq"/><use transform="matrix(0.0493827160493827,0,0,0.0493827160493827,25.679012345679002,0)" xlink:href="#br"/><use transform="matrix(0.0493827160493827,0,0,0.0493827160493827,36.493827160493815,0)" xlink:href="#bs"/><use transform="matrix(0.0493827160493827,0,0,0.0493827160493827,41.43209876543209,0)" xlink:href="#bt"/><use transform="matrix(0.0493827160493827,0,0,0.0493827160493827,47.30864197530863,0)" xlink:href="#bk"/><use transform="matrix(0.0493827160493827,0,0,0.0493827160493827,57.18518518518517,0)" xlink:href="#bn"/><use transform="matrix(0.0493827160493827,0,0,0.0493827160493827,67.0617283950617,0)" xlink:href="#bo"/></g><path fill="#6a8759" d="M25 0v-261h50V0H25" id="bu"/><g id="m"><use transform="matrix(0.0493827160493827,0,0,0.0493827160493827,0,0)" xlink:href="#bt"/><use transform="matrix(0.0493827160493827,0,0,0.0493827160493827,5.876543209876541,0)" xlink:href="#bs"/><use transform="matrix(0.0493827160493827,0,0,0.0493827160493827,10.81481481481481,0)" xlink:href="#bu"/><use transform="matrix(0.0493827160493827,0,0,0.0493827160493827,15.753086419753078,0)" xlink:href="#bk"/><use transform="matrix(0.0493827160493827,0,0,0.0493827160493827,25.629629629629623,0)" xlink:href="#bn"/></g><path fill="#6a8759" d="M110-194c64 0 96 36 96 99 0 64-35 99-97 99-61 0-95-36-95-99 0-62 34-99 96-99zm-1 164c35 0 45-28 45-65 0-40-10-65-43-65-34 0-45 26-45 65 0 36 10 65 43 65" id="bv"/><path fill="#6a8759" d="M135-150c-39-12-60 13-60 57V0H25l-1-190h47c2 13-1 29 3 40 6-28 27-53 61-41v41" id="bw"/><g id="n"><use transform="matrix(0.0493827160493827,0,0,0.0493827160493827,0,0)" xlink:href="#bt"/><use transform="matrix(0.0493827160493827,0,0,0.0493827160493827,5.876543209876541,0)" xlink:href="#bv"/><use transform="matrix(0.0493827160493827,0,0,0.0493827160493827,16.691358024691354,0)" xlink:href="#bw"/></g><path fill="#6a8759" d="M128 0H69L1-190h53L99-40l48-150h52" id="bx"/><path fill="#6a8759" d="M88-194c31-1 46 15 58 34l-1-101h50l1 261h-48c-2-10 0-23-3-31C134-8 116 4 84 4 32 4 16-41 15-95c0-56 19-97 73-99zm17 164c33 0 40-30 41-66 1-37-9-64-41-64s-38 30-39 65c0 43 13 65 39 65" id="by"/><path fill="#6a8759" d="M-4 44V30h207v14H-4" id="bz"/><g id="o"><use transform="matrix(0.0493827160493827,0,0,0.0493827160493827,0,0)" xlink:href="#bx"/><use transform="matrix(0.0493827160493827,0,0,0.0493827160493827,9.876543209876539,0)" xlink:href="#bs"/><use transform="matrix(0.0493827160493827,0,0,0.0493827160493827,14.81481481481481,0)" xlink:href="#by"/><use transform="matrix(0.0493827160493827,0,0,0.0493827160493827,25.629629629629623,0)" xlink:href="#bk"/><use transform="matrix(0.0493827160493827,0,0,0.0493827160493827,35.506172839506156,0)" xlink:href="#bv"/><use transform="matrix(0.0493827160493827,0,0,0.0493827160493827,46.320987654320966,0)" xlink:href="#bz"/><use transform="matrix(0.0493827160493827,0,0,0.0493827160493827,56.1975308641975,0)" xlink:href="#bm"/><use transform="matrix(0.0493827160493827,0,0,0.0493827160493827,67.01234567901231,0)" xlink:href="#bs"/><use transform="matrix(0.0493827160493827,0,0,0.0493827160493827,71.95061728395058,0)" xlink:href="#by"/></g><path fill="#cc4e00" d="M0 4l72-265h28L28 4H0" id="bA"/><path fill="#cc4e00" d="M106-169C34-169 62-67 57 0H25v-261h32l-1 103c12-21 28-36 61-36 89 0 53 116 60 194h-32v-121c2-32-8-49-39-48" id="bB"/><path fill="#cc4e00" d="M24 0v-261h32V0H24" id="bC"/><path fill="#cc4e00" d="M135-143c-3-34-86-38-87 0 15 53 115 12 119 90S17 21 10-45l28-5c4 36 97 45 98 0-10-56-113-15-118-90-4-57 82-63 122-42 12 7 21 19 24 35" id="bD"/><path fill="#cc4e00" d="M210-169c-67 3-38 105-44 169h-31v-121c0-29-5-50-35-48C34-165 62-65 56 0H25l-1-190h30c1 10-1 24 2 32 10-44 99-50 107 0 11-21 27-35 58-36 85-2 47 119 55 194h-31v-121c0-29-5-49-35-48" id="bE"/><path fill="#cc4e00" d="M141-36C126-15 110 5 73 4 37 3 15-17 15-53c-1-64 63-63 125-63 3-35-9-54-41-54-24 1-41 7-42 31l-33-3c5-37 33-52 76-52 45 0 72 20 72 64v82c-1 20 7 32 28 27v20c-31 9-61-2-59-35zM48-53c0 20 12 33 32 33 41-3 63-29 60-74-43 2-92-5-92 41" id="bF"/><path fill="#cc4e00" d="M117-194c89-4 53 116 60 194h-32v-121c0-31-8-49-39-48C34-167 62-67 57 0H25l-1-190h30c1 10-1 24 2 32 11-22 29-35 61-36" id="bG"/><path fill="#cc4e00" d="M24-231v-30h32v30H24zM24 0v-190h32V0H24" id="bH"/><path fill="#cc4e00" d="M101-234c-31-9-42 10-38 44h38v23H63V0H32v-167H5v-23h27c-7-52 17-82 69-68v24" id="bI"/><path fill="#cc4e00" d="M100-194c63 0 86 42 84 106H49c0 40 14 67 53 68 26 1 43-12 49-29l28 8c-11 28-37 45-77 45C44 4 14-33 15-96c1-61 26-98 85-98zm52 81c6-60-76-77-97-28-3 7-6 17-6 28h103" id="bJ"/><path fill="#cc4e00" d="M59-47c-2 24 18 29 38 22v24C64 9 27 4 27-40v-127H5v-23h24l9-43h21v43h35v23H59v120" id="bK"/><path fill="#cc4e00" d="M39-94c74 12-11 154 75 146v23c-44 4-70-10-70-52C44-23 55-84 6-82v-22c81 4-7-162 84-157h24v23c-82-15-2 131-75 144" id="bL"/><path fill="#cc4e00" d="M108 0H70L1-190h34L89-25l56-165h34" id="bM"/><path fill="#cc4e00" d="M85-194c31 0 48 13 60 33l-1-100h32l1 261h-30c-2-10 0-23-3-31C134-8 116 4 85 4 32 4 16-35 15-94c0-66 23-100 70-100zm9 24c-40 0-46 34-46 75 0 40 6 74 45 74 42 0 51-32 51-76 0-42-9-74-50-73" id="bN"/><path fill="#cc4e00" d="M100-194c62-1 85 37 85 99 1 63-27 99-86 99S16-35 15-95c0-66 28-99 85-99zM99-20c44 1 53-31 53-75 0-43-8-75-51-75s-53 32-53 75 10 74 51 75" id="bO"/><path fill="#cc4e00" d="M-5 72V49h209v23H-5" id="bP"/><path fill="#cc4e00" d="M84 4C-5 8 30-112 23-190h32v120c0 31 7 50 39 49 72-2 45-101 50-169h31l1 190h-30c-1-10 1-25-2-33-11 22-28 36-60 37" id="bQ"/><path fill="#cc4e00" d="M76-40C78 24 84 88 6 75V52C86 64 9-79 80-94c-40-6-34-59-34-106 1-29-11-41-40-38v-23c44-4 70 10 70 52 0 47-12 108 38 105v22c-26 1-39 14-38 42" id="bR"/><path fill="#cc4e00" d="M114-163C36-179 61-72 57 0H25l-1-190h30c1 12-1 29 2 39 6-27 23-49 58-41v29" id="bS"/><path fill="#cc4e00" d="M177-190C167-65 218 103 67 71c-23-6-38-20-44-43l32-5c15 47 100 32 89-28v-30C133-14 115 1 83 1 29 1 15-40 15-95c0-56 16-97 71-98 29-1 48 16 59 35 1-10 0-23 2-32h30zM94-22c36 0 50-32 50-73 0-42-14-75-50-75-39 0-46 34-46 75s6 73 46 73" id="bT"/><g id="p"><use transform="matrix(0.04839518518518518,0,0,0.04839518518518518,0,0)" xlink:href="#bA"/><use transform="matrix(0.04839518518518518,0,0,0.04839518518518518,4.839518518518518,0)" xlink:href="#bB"/><use transform="matrix(0.04839518518518518,0,0,0.04839518518518518,14.518555555555555,0)" xlink:href="#bC"/><use transform="matrix(0.04839518518518518,0,0,0.04839518518518518,18.341775185185185,0)" xlink:href="#bD"/><use transform="matrix(0.04839518518518518,0,0,0.04839518518518518,27.052908518518514,0)" xlink:href="#bE"/><use transform="matrix(0.04839518518518518,0,0,0.04839518518518518,41.523068888888886,0)" xlink:href="#bF"/><use transform="matrix(0.04839518518518518,0,0,0.04839518518518518,51.20210592592592,0)" xlink:href="#bG"/><use transform="matrix(0.04839518518518518,0,0,0.04839518518518518,60.881142962962954,0)" xlink:href="#bH"/><use transform="matrix(0.04839518518518518,0,0,0.04839518518518518,64.70436259259259,0)" xlink:href="#bI"/><use transform="matrix(0.04839518518518518,0,0,0.04839518518518518,69.5438811111111,0)" xlink:href="#bJ"/><use transform="matrix(0.04839518518518518,0,0,0.04839518518518518,79.22291814814814,0)" xlink:href="#bD"/><use transform="matrix(0.04839518518518518,0,0,0.04839518518518518,87.93405148148148,0)" xlink:href="#bK"/><use transform="matrix(0.04839518518518518,0,0,0.04839518518518518,92.77356999999999,0)" xlink:href="#bA"/><use transform="matrix(0.04839518518518518,0,0,0.04839518518518518,97.61308851851851,0)" xlink:href="#bL"/><use transform="matrix(0.04839518518518518,0,0,0.04839518518518518,103.42051074074072,0)" xlink:href="#bM"/><use transform="matrix(0.04839518518518518,0,0,0.04839518518518518,112.13164407407406,0)" xlink:href="#bH"/><use transform="matrix(0.04839518518518518,0,0,0.04839518518518518,115.9548637037037,0)" xlink:href="#bN"/><use transform="matrix(0.04839518518518518,0,0,0.04839518518518518,125.63390074074073,0)" xlink:href="#bJ"/><use transform="matrix(0.04839518518518518,0,0,0.04839518518518518,135.31293777777776,0)" xlink:href="#bO"/><use transform="matrix(0.04839518518518518,0,0,0.04839518518518518,144.9919748148148,0)" xlink:href="#bP"/><use transform="matrix(0.04839518518518518,0,0,0.04839518518518518,154.67101185185183,0)" xlink:href="#bQ"/><use transform="matrix(0.04839518518518518,0,0,0.04839518518518518,164.35004888888886,0)" xlink:href="#bH"/><use transform="matrix(0.04839518518518518,0,0,0.04839518518518518,168.17326851851848,0)" xlink:href="#bN"/><use transform="matrix(0.04839518518518518,0,0,0.04839518518518518,177.85230555555552,0)" xlink:href="#bR"/><use transform="matrix(0.04839518518518518,0,0,0.04839518518518518,183.65972777777773,0)" xlink:href="#bA"/><use transform="matrix(0.04839518518518518,0,0,0.04839518518518518,188.49924629629626,0)" xlink:href="#bL"/><use transform="matrix(0.04839518518518518,0,0,0.04839518518518518,194.30666851851848,0)" xlink:href="#bS"/><use transform="matrix(0.04839518518518518,0,0,0.04839518518518518,200.06569555555552,0)" xlink:href="#bJ"/><use transform="matrix(0.04839518518518518,0,0,0.04839518518518518,209.74473259259258,0)" xlink:href="#bD"/><use transform="matrix(0.04839518518518518,0,0,0.04839518518518518,218.45586592592585,0)" xlink:href="#bO"/><use transform="matrix(0.04839518518518518,0,0,0.04839518518518518,228.13490296296288,0)" xlink:href="#bC"/><use transform="matrix(0.04839518518518518,0,0,0.04839518518518518,231.95812259259253,0)" xlink:href="#bQ"/><use transform="matrix(0.04839518518518518,0,0,0.04839518518518518,241.63715962962956,0)" xlink:href="#bK"/><use transform="matrix(0.04839518518518518,0,0,0.04839518518518518,246.47667814814807,0)" xlink:href="#bH"/><use transform="matrix(0.04839518518518518,0,0,0.04839518518518518,250.29989777777772,0)" xlink:href="#bO"/><use transform="matrix(0.04839518518518518,0,0,0.04839518518518518,259.97893481481475,0)" xlink:href="#bG"/><use transform="matrix(0.04839518518518518,0,0,0.04839518518518518,269.6579718518518,0)" xlink:href="#bR"/><use transform="matrix(0.04839518518518518,0,0,0.04839518518518518,275.465394074074,0)" xlink:href="#bA"/><use transform="matrix(0.04839518518518518,0,0,0.04839518518518518,280.30491259259253,0)" xlink:href="#bL"/><use transform="matrix(0.04839518518518518,0,0,0.04839518518518518,286.11233481481474,0)" xlink:href="#bD"/><use transform="matrix(0.04839518518518518,0,0,0.04839518518518518,294.8234681481481,0)" xlink:href="#bJ"/><use transform="matrix(0.04839518518518518,0,0,0.04839518518518518,304.50250518518516,0)" xlink:href="#bT"/><use transform="matrix(0.04839518518518518,0,0,0.04839518518518518,314.1815422222222,0)" xlink:href="#bE"/><use transform="matrix(0.04839518518518518,0,0,0.04839518518518518,328.6517025925926,0)" xlink:href="#bJ"/><use transform="matrix(0.04839518518518518,0,0,0.04839518518518518,338.33073962962965,0)" xlink:href="#bG"/><use transform="matrix(0.04839518518518518,0,0,0.04839518518518518,348.0097766666667,0)" xlink:href="#bK"/><use transform="matrix(0.04839518518518518,0,0,0.04839518518518518,352.8492951851852,0)" xlink:href="#bR"/></g><path fill="#cc4e00" d="M182-182c0 78-84 86-111 141h115V0H12c-6-101 99-100 120-180 1-22-12-31-33-32-23 0-32 14-35 34l-49-3c5-45 32-70 84-70 51 0 83 22 83 69" id="bU"/><path fill="#cc4e00" d="M35-132v-50h50v50H35zM35 0v-49h50V0H35" id="bV"/><g id="q"><use transform="matrix(0.0493827160493827,0,0,0.0493827160493827,0,0)" xlink:href="#bU"/><use transform="matrix(0.0493827160493827,0,0,0.0493827160493827,9.876543209876539,0)" xlink:href="#bV"/></g><path fill="#cc4e00" d="M240-174c0 40-23 61-54 70L253 0h-59l-57-94H76V0H24v-248c93 4 217-23 216 74zM76-134c48-2 112 12 112-38 0-48-66-32-112-35v73" id="bW"/><path fill="#cc4e00" d="M185-48c-13 30-37 53-82 52C43 2 14-33 14-96s30-98 90-98c62 0 83 45 84 108H66c0 31 8 55 39 56 18 0 30-7 34-22zm-45-69c5-46-57-63-70-21-2 6-4 13-4 21h74" id="bX"/><path fill="#cc4e00" d="M84 4C32 4 15-41 15-95c0-55 18-99 73-99 29 0 47 12 58 34l2-30h48l-1 265h-49V-32C136-9 114 4 84 4zm21-34c32 0 41-29 41-66 0-36-9-64-40-64-33 0-39 30-40 65 0 43 13 65 39 65" id="bY"/><path fill="#cc4e00" d="M85 4C-2 5 27-109 22-190h50c7 57-23 150 33 157 60-5 35-97 40-157h50l1 190h-47c-2-12 1-28-3-38-12 25-28 42-61 42" id="bZ"/><path fill="#cc4e00" d="M137-138c1-29-70-34-71-4 15 46 118 7 119 86 1 83-164 76-172 9l43-7c4 19 20 25 44 25 33 8 57-30 24-41C81-84 22-81 20-136c-2-80 154-74 161-7" id="ca"/><path fill="#cc4e00" d="M115-3C79 11 28 4 28-45v-112H4v-33h27l15-45h31v45h36v33H77v99c-1 23 16 31 38 25v30" id="cb"/><g id="r"><use transform="matrix(0.0493827160493827,0,0,0.0493827160493827,0,0)" xlink:href="#bW"/><use transform="matrix(0.0493827160493827,0,0,0.0493827160493827,12.79012345679012,0)" xlink:href="#bX"/><use transform="matrix(0.0493827160493827,0,0,0.0493827160493827,22.666666666666657,0)" xlink:href="#bY"/><use transform="matrix(0.0493827160493827,0,0,0.0493827160493827,33.48148148148147,0)" xlink:href="#bZ"/><use transform="matrix(0.0493827160493827,0,0,0.0493827160493827,44.296296296296276,0)" xlink:href="#bX"/><use transform="matrix(0.0493827160493827,0,0,0.0493827160493827,54.17283950617281,0)" xlink:href="#ca"/><use transform="matrix(0.0493827160493827,0,0,0.0493827160493827,64.04938271604935,0)" xlink:href="#cb"/></g><path fill="#cc4e00" d="M195-6C206 82 75 100 31 46c-4-6-6-13-8-21l49-6c3 16 16 24 34 25 40 0 42-37 40-79-11 22-30 35-61 35-53 0-70-43-70-97 0-56 18-96 73-97 30 0 46 14 59 34l2-30h47zm-90-29c32 0 41-27 41-63 0-35-9-62-40-62-32 0-39 29-40 63 0 36 9 62 39 62" id="cc"/><path fill="#cc4e00" d="M220-157c-53 9-28 100-34 157h-49v-107c1-27-5-49-29-50C55-147 81-57 75 0H25l-1-190h47c2 12-1 28 3 38 10-53 101-56 108 0 13-22 24-43 59-42 82 1 51 116 57 194h-49v-107c-1-25-5-48-29-50" id="cd"/><path fill="#cc4e00" d="M135-194c87-1 58 113 63 194h-50c-7-57 23-157-34-157-59 0-34 97-39 157H25l-1-190h47c2 12-1 28 3 38 12-26 28-41 61-42" id="ce"/><g id="s"><use transform="matrix(0.0493827160493827,0,0,0.0493827160493827,0,0)" xlink:href="#ca"/><use transform="matrix(0.0493827160493827,0,0,0.0493827160493827,9.876543209876539,0)" xlink:href="#bX"/><use transform="matrix(0.0493827160493827,0,0,0.0493827160493827,19.753086419753078,0)" xlink:href="#cc"/><use transform="matrix(0.0493827160493827,0,0,0.0493827160493827,30.56790123456789,0)" xlink:href="#cd"/><use transform="matrix(0.0493827160493827,0,0,0.0493827160493827,46.37037037037035,0)" xlink:href="#bX"/><use transform="matrix(0.0493827160493827,0,0,0.0493827160493827,56.2469135802469,0)" xlink:href="#ce"/><use transform="matrix(0.0493827160493827,0,0,0.0493827160493827,67.0617283950617,0)" xlink:href="#cb"/></g><path fill="#cc4e00" d="M231 0h-52l-39-155L100 0H48L-1-190h46L77-45c9-52 24-97 36-145h53l37 145 32-145h46" id="cf"/><path fill="#cc4e00" d="M25-224v-37h50v37H25zM25 0v-190h50V0H25" id="cg"/><path fill="#cc4e00" d="M114-157C55-157 80-60 75 0H25v-261h50l-1 109c12-26 28-41 61-42 86-1 58 113 63 194h-50c-7-57 23-157-34-157" id="ch"/><g id="t"><use transform="matrix(0.0493827160493827,0,0,0.0493827160493827,0,0)" xlink:href="#cf"/><use transform="matrix(0.0493827160493827,0,0,0.0493827160493827,13.827160493827156,0)" xlink:href="#cg"/><use transform="matrix(0.0493827160493827,0,0,0.0493827160493827,18.765432098765427,0)" xlink:href="#cb"/><use transform="matrix(0.0493827160493827,0,0,0.0493827160493827,24.641975308641968,0)" xlink:href="#ch"/></g><g id="u"><use transform="matrix(0.0493827160493827,0,0,0.0493827160493827,0,0)" xlink:href="#cb"/><use transform="matrix(0.0493827160493827,0,0,0.0493827160493827,5.876543209876541,0)" xlink:href="#ch"/><use transform="matrix(0.0493827160493827,0,0,0.0493827160493827,16.691358024691354,0)" xlink:href="#bX"/></g><path fill="#cc4e00" d="M135-194c53 0 70 44 70 98 0 56-19 98-73 100-31 1-45-17-59-34 3 33 2 69 2 105H25l-1-265h48c2 10 0 23 3 31 11-24 29-35 60-35zM114-30c33 0 39-31 40-66 0-38-9-64-40-64-56 0-55 130 0 130" id="ci"/><path fill="#cc4e00" d="M135-150c-39-12-60 13-60 57V0H25l-1-190h47c2 13-1 29 3 40 6-28 27-53 61-41v41" id="cj"/><path fill="#cc4e00" d="M110-194c64 0 96 36 96 99 0 64-35 99-97 99-61 0-95-36-95-99 0-62 34-99 96-99zm-1 164c35 0 45-28 45-65 0-40-10-65-43-65-34 0-45 26-45 65 0 36 10 65 43 65" id="ck"/><path fill="#cc4e00" d="M128 0H69L1-190h53L99-40l48-150h52" id="cl"/><path fill="#cc4e00" d="M88-194c31-1 46 15 58 34l-1-101h50l1 261h-48c-2-10 0-23-3-31C134-8 116 4 84 4 32 4 16-41 15-95c0-56 19-97 73-99zm17 164c33 0 40-30 41-66 1-37-9-64-41-64s-38 30-39 65c0 43 13 65 39 65" id="cm"/><g id="v"><use transform="matrix(0.0493827160493827,0,0,0.0493827160493827,0,0)" xlink:href="#ci"/><use transform="matrix(0.0493827160493827,0,0,0.0493827160493827,10.814814814814811,0)" xlink:href="#cj"/><use transform="matrix(0.0493827160493827,0,0,0.0493827160493827,17.72839506172839,0)" xlink:href="#ck"/><use transform="matrix(0.0493827160493827,0,0,0.0493827160493827,28.5432098765432,0)" xlink:href="#cl"/><use transform="matrix(0.0493827160493827,0,0,0.0493827160493827,38.41975308641974,0)" xlink:href="#cg"/><use transform="matrix(0.0493827160493827,0,0,0.0493827160493827,43.35802469135801,0)" xlink:href="#cm"/><use transform="matrix(0.0493827160493827,0,0,0.0493827160493827,54.17283950617282,0)" xlink:href="#bX"/><use transform="matrix(0.0493827160493827,0,0,0.0493827160493827,64.04938271604937,0)" xlink:href="#cm"/></g><path fill="#cc4e00" d="M121-226c-27-7-43 5-38 36h38v33H83V0H34v-157H6v-33h28c-9-59 32-81 87-68v32" id="cn"/><g id="w"><use transform="matrix(0.0493827160493827,0,0,0.0493827160493827,0,0)" xlink:href="#ck"/><use transform="matrix(0.0493827160493827,0,0,0.0493827160493827,10.814814814814811,0)" xlink:href="#cn"/><use transform="matrix(0.0493827160493827,0,0,0.0493827160493827,16.691358024691354,0)" xlink:href="#cn"/><use transform="matrix(0.0493827160493827,0,0,0.0493827160493827,22.567901234567895,0)" xlink:href="#ca"/><use transform="matrix(0.0493827160493827,0,0,0.0493827160493827,32.444444444444436,0)" xlink:href="#bX"/><use transform="matrix(0.0493827160493827,0,0,0.0493827160493827,42.32098765432097,0)" xlink:href="#cb"/></g><path fill="#cc4e00" d="M133-34C117-15 103 5 69 4 32 3 11-16 11-54c-1-60 55-63 116-61 1-26-3-47-28-47-18 1-26 9-28 27l-52-2c7-38 36-58 82-57s74 22 75 68l1 82c-1 14 12 18 25 15v27c-30 8-71 5-69-32zm-48 3c29 0 43-24 42-57-32 0-66-3-65 30 0 17 8 27 23 27" id="co"/><g id="x"><use transform="matrix(0.0493827160493827,0,0,0.0493827160493827,0,0)" xlink:href="#co"/><use transform="matrix(0.0493827160493827,0,0,0.0493827160493827,9.876543209876539,0)" xlink:href="#ce"/><use transform="matrix(0.0493827160493827,0,0,0.0493827160493827,20.69135802469135,0)" xlink:href="#cm"/></g><path fill="#cc4e00" d="M25 0v-261h50V0H25" id="cp"/><path fill="#cc4e00" d="M8 0l10-54h51L59 0H8" id="cq"/><g id="y"><use transform="matrix(0.0493827160493827,0,0,0.0493827160493827,0,0)" xlink:href="#cj"/><use transform="matrix(0.0493827160493827,0,0,0.0493827160493827,6.913580246913578,0)" xlink:href="#bX"/><use transform="matrix(0.0493827160493827,0,0,0.0493827160493827,16.790123456790116,0)" xlink:href="#ca"/><use transform="matrix(0.0493827160493827,0,0,0.0493827160493827,26.666666666666657,0)" xlink:href="#ck"/><use transform="matrix(0.0493827160493827,0,0,0.0493827160493827,37.48148148148147,0)" xlink:href="#cp"/><use transform="matrix(0.0493827160493827,0,0,0.0493827160493827,42.41975308641974,0)" xlink:href="#bZ"/><use transform="matrix(0.0493827160493827,0,0,0.0493827160493827,53.23456790123455,0)" xlink:href="#cb"/><use transform="matrix(0.0493827160493827,0,0,0.0493827160493827,59.11111111111109,0)" xlink:href="#cg"/><use transform="matrix(0.0493827160493827,0,0,0.0493827160493827,64.04938271604935,0)" xlink:href="#ck"/><use transform="matrix(0.0493827160493827,0,0,0.0493827160493827,74.86419753086416,0)" xlink:href="#ce"/><use transform="matrix(0.0493827160493827,0,0,0.0493827160493827,85.67901234567897,0)" xlink:href="#cq"/></g><path fill="#008573" d="M220-157c-53 9-28 100-34 157h-49v-107c1-27-5-49-29-50C55-147 81-57 75 0H25l-1-190h47c2 12-1 28 3 38 10-53 101-56 108 0 13-22 24-43 59-42 82 1 51 116 57 194h-49v-107c-1-25-5-48-29-50" id="cr"/><path fill="#008573" d="M185-48c-13 30-37 53-82 52C43 2 14-33 14-96s30-98 90-98c62 0 83 45 84 108H66c0 31 8 55 39 56 18 0 30-7 34-22zm-45-69c5-46-57-63-70-21-2 6-4 13-4 21h74" id="cs"/><path fill="#008573" d="M115-3C79 11 28 4 28-45v-112H4v-33h27l15-45h31v45h36v33H77v99c-1 23 16 31 38 25v30" id="ct"/><path fill="#008573" d="M135-150c-39-12-60 13-60 57V0H25l-1-190h47c2 13-1 29 3 40 6-28 27-53 61-41v41" id="cu"/><path fill="#008573" d="M25-224v-37h50v37H25zM25 0v-190h50V0H25" id="cv"/><path fill="#008573" d="M190-63c-7 42-38 67-86 67-59 0-84-38-90-98-12-110 154-137 174-36l-49 2c-2-19-15-32-35-32-30 0-35 28-38 64-6 74 65 87 74 30" id="cw"/><path fill="#008573" d="M137-138c1-29-70-34-71-4 15 46 118 7 119 86 1 83-164 76-172 9l43-7c4 19 20 25 44 25 33 8 57-30 24-41C81-84 22-81 20-136c-2-80 154-74 161-7" id="cx"/><g id="z"><use transform="matrix(0.04938271604938272,0,0,0.04938271604938272,0,0)" xlink:href="#cr"/><use transform="matrix(0.04938271604938272,0,0,0.04938271604938272,15.80246913580247,0)" xlink:href="#cs"/><use transform="matrix(0.04938271604938272,0,0,0.04938271604938272,25.679012345679016,0)" xlink:href="#ct"/><use transform="matrix(0.04938271604938272,0,0,0.04938271604938272,31.555555555555557,0)" xlink:href="#cu"/><use transform="matrix(0.04938271604938272,0,0,0.04938271604938272,38.46913580246914,0)" xlink:href="#cv"/><use transform="matrix(0.04938271604938272,0,0,0.04938271604938272,43.40740740740741,0)" xlink:href="#cw"/><use transform="matrix(0.04938271604938272,0,0,0.04938271604938272,53.283950617283956,0)" xlink:href="#cx"/></g><path fill="#008573" d="M135-194c87-1 58 113 63 194h-50c-7-57 23-157-34-157-59 0-34 97-39 157H25l-1-190h47c2 12-1 28 3 38 12-26 28-41 61-42" id="cy"/><g id="A"><use transform="matrix(0.04938271604938272,0,0,0.04938271604938272,0,0)" xlink:href="#cx"/><use transform="matrix(0.04938271604938272,0,0,0.04938271604938272,9.876543209876544,0)" xlink:href="#cs"/><use transform="matrix(0.04938271604938272,0,0,0.04938271604938272,19.75308641975309,0)" xlink:href="#cy"/><use transform="matrix(0.04938271604938272,0,0,0.04938271604938272,30.567901234567906,0)" xlink:href="#ct"/></g><path fill="#008573" d="M110-194c64 0 96 36 96 99 0 64-35 99-97 99-61 0-95-36-95-99 0-62 34-99 96-99zm-1 164c35 0 45-28 45-65 0-40-10-65-43-65-34 0-45 26-45 65 0 36 10 65 43 65" id="cz"/><g id="B"><use transform="matrix(0.04938271604938272,0,0,0.04938271604938272,0,0)" xlink:href="#ct"/><use transform="matrix(0.04938271604938272,0,0,0.04938271604938272,5.8765432098765435,0)" xlink:href="#cz"/></g><path fill="#008573" d="M136-208V0H84v-208H4v-40h212v40h-80" id="cA"/><path fill="#008573" d="M169-182c-1-43-94-46-97-3 18 66 151 10 154 114 3 95-165 93-204 36-6-8-10-19-12-30l50-8c3 46 112 56 116 5-17-69-150-10-154-114-4-87 153-88 188-35 5 8 8 18 10 28" id="cB"/><path fill="#008573" d="M24-248c120-7 223 5 221 122C244-46 201 0 124 0H24v-248zM76-40c74 7 117-18 117-86 0-67-45-88-117-82v168" id="cC"/><path fill="#008573" d="M182-130c37 4 62 22 62 59C244 23 116-4 24 0v-248c84 5 203-23 205 63 0 31-19 50-47 55zM76-148c40-3 101 13 101-30 0-44-60-28-101-31v61zm0 110c48-3 116 14 116-37 0-48-69-32-116-35v72" id="cD"/><g id="C"><use transform="matrix(0.04938271604938272,0,0,0.04938271604938272,0,0)" xlink:href="#cA"/><use transform="matrix(0.04938271604938272,0,0,0.04938271604938272,10.814814814814815,0)" xlink:href="#cB"/><use transform="matrix(0.04938271604938272,0,0,0.04938271604938272,22.666666666666668,0)" xlink:href="#cC"/><use transform="matrix(0.04938271604938272,0,0,0.04938271604938272,35.45679012345679,0)" xlink:href="#cD"/></g><path fill="#008a0e" d="M212-179c-10-28-35-45-73-45-59 0-87 40-87 99 0 60 29 101 89 101 43 0 62-24 78-52l27 14C228-24 195 4 139 4 59 4 22-46 18-125c-6-104 99-153 187-111 19 9 31 26 39 46" id="cE"/><path fill="#008a0e" d="M141-36C126-15 110 5 73 4 37 3 15-17 15-53c-1-64 63-63 125-63 3-35-9-54-41-54-24 1-41 7-42 31l-33-3c5-37 33-52 76-52 45 0 72 20 72 64v82c-1 20 7 32 28 27v20c-31 9-61-2-59-35zM48-53c0 20 12 33 32 33 41-3 63-29 60-74-43 2-92-5-92 41" id="cF"/><path fill="#008a0e" d="M100-194c63 0 86 42 84 106H49c0 40 14 67 53 68 26 1 43-12 49-29l28 8c-11 28-37 45-77 45C44 4 14-33 15-96c1-61 26-98 85-98zm52 81c6-60-76-77-97-28-3 7-6 17-6 28h103" id="cG"/><g id="E"><use transform="matrix(0.049382716049382706,0,0,0.049382716049382706,0,0)" xlink:href="#cE"/><use transform="matrix(0.049382716049382706,0,0,0.049382716049382706,12.790123456790122,0)" xlink:href="#aM"/><use transform="matrix(0.049382716049382706,0,0,0.049382716049382706,22.666666666666664,0)" xlink:href="#aN"/><use transform="matrix(0.049382716049382706,0,0,0.049382716049382706,32.5432098765432,0)" xlink:href="#aP"/><use transform="matrix(0.049382716049382706,0,0,0.049382716049382706,37.481481481481474,0)" xlink:href="#cF"/><use transform="matrix(0.049382716049382706,0,0,0.049382716049382706,47.35802469135801,0)" xlink:href="#aO"/><use transform="matrix(0.049382716049382706,0,0,0.049382716049382706,51.25925925925925,0)" xlink:href="#aN"/><use transform="matrix(0.049382716049382706,0,0,0.049382716049382706,61.13580246913578,0)" xlink:href="#cG"/><use transform="matrix(0.049382716049382706,0,0,0.049382716049382706,71.01234567901233,0)" xlink:href="#aQ"/></g><path fill="#008a0e" d="M135-143c-3-34-86-38-87 0 15 53 115 12 119 90S17 21 10-45l28-5c4 36 97 45 98 0-10-56-113-15-118-90-4-57 82-63 122-42 12 7 21 19 24 35" id="cH"/><path fill="#008a0e" d="M115-194c55 1 70 41 70 98S169 2 115 4C84 4 66-9 55-30l1 105H24l-1-265h31l2 30c10-21 28-34 59-34zm-8 174c40 0 45-34 45-75s-6-73-45-74c-42 0-51 32-51 76 0 43 10 73 51 73" id="cI"/><path fill="#008a0e" d="M96-169c-40 0-48 33-48 73s9 75 48 75c24 0 41-14 43-38l32 2c-6 37-31 61-74 61-59 0-76-41-82-99-10-93 101-131 147-64 4 7 5 14 7 22l-32 3c-4-21-16-35-41-35" id="cJ"/><path fill="#008a0e" d="M101-234c-31-9-42 10-38 44h38v23H63V0H32v-167H5v-23h27c-7-52 17-82 69-68v24" id="cK"/><g id="F"><use transform="matrix(0.049382716049382706,0,0,0.049382716049382706,0,0)" xlink:href="#cH"/><use transform="matrix(0.049382716049382706,0,0,0.049382716049382706,8.888888888888888,0)" xlink:href="#cI"/><use transform="matrix(0.049382716049382706,0,0,0.049382716049382706,18.76543209876543,0)" xlink:href="#cG"/><use transform="matrix(0.049382716049382706,0,0,0.049382716049382706,28.64197530864197,0)" xlink:href="#cJ"/><use transform="matrix(0.049382716049382706,0,0,0.049382716049382706,37.53086419753086,0)" xlink:href="#aO"/><use transform="matrix(0.049382716049382706,0,0,0.049382716049382706,41.432098765432094,0)" xlink:href="#cK"/><use transform="matrix(0.049382716049382706,0,0,0.049382716049382706,46.37037037037037,0)" xlink:href="#aO"/><use transform="matrix(0.049382716049382706,0,0,0.049382716049382706,50.2716049382716,0)" xlink:href="#cJ"/></g><g id="G"><use transform="matrix(0.049382716049382706,0,0,0.049382716049382706,0,0)" xlink:href="#cH"/><use transform="matrix(0.049382716049382706,0,0,0.049382716049382706,8.888888888888888,0)" xlink:href="#aP"/><use transform="matrix(0.049382716049382706,0,0,0.049382716049382706,13.827160493827158,0)" xlink:href="#cF"/><use transform="matrix(0.049382716049382706,0,0,0.049382716049382706,23.7037037037037,0)" xlink:href="#aP"/><use transform="matrix(0.049382716049382706,0,0,0.049382716049382706,28.64197530864197,0)" xlink:href="#aO"/><use transform="matrix(0.049382716049382706,0,0,0.049382716049382706,32.5432098765432,0)" xlink:href="#cH"/><use transform="matrix(0.049382716049382706,0,0,0.049382716049382706,41.43209876543209,0)" xlink:href="#aP"/><use transform="matrix(0.049382716049382706,0,0,0.049382716049382706,46.37037037037036,0)" xlink:href="#aO"/><use transform="matrix(0.049382716049382706,0,0,0.049382716049382706,50.271604938271594,0)" xlink:href="#cJ"/><use transform="matrix(0.049382716049382706,0,0,0.049382716049382706,59.16049382716048,0)" xlink:href="#cH"/></g><path fill="#008a0e" d="M85-194c31 0 48 13 60 33l-1-100h32l1 261h-30c-2-10 0-23-3-31C134-8 116 4 85 4 32 4 16-35 15-94c0-66 23-100 70-100zm9 24c-40 0-46 34-46 75 0 40 6 74 45 74 42 0 51-32 51-76 0-42-9-74-50-73" id="cL"/><path fill="#008a0e" d="M24 0v-261h32V0H24" id="cM"/><path fill="#008a0e" d="M179-190L93 31C79 59 56 82 12 73V49c39 6 53-20 64-50L1-190h34L92-34l54-156h33" id="cN"/><g id="H"><use transform="matrix(0.049382716049382706,0,0,0.049382716049382706,0,0)" xlink:href="#cI"/><use transform="matrix(0.049382716049382706,0,0,0.049382716049382706,9.87654320987654,0)" xlink:href="#cG"/><use transform="matrix(0.049382716049382706,0,0,0.049382716049382706,19.75308641975308,0)" xlink:href="#aQ"/><use transform="matrix(0.049382716049382706,0,0,0.049382716049382706,25.629629629629626,0)" xlink:href="#aO"/><use transform="matrix(0.049382716049382706,0,0,0.049382716049382706,29.530864197530857,0)" xlink:href="#aM"/><use transform="matrix(0.049382716049382706,0,0,0.049382716049382706,39.4074074074074,0)" xlink:href="#cL"/><use transform="matrix(0.049382716049382706,0,0,0.049382716049382706,49.283950617283935,0)" xlink:href="#aO"/><use transform="matrix(0.049382716049382706,0,0,0.049382716049382706,53.18518518518516,0)" xlink:href="#cJ"/><use transform="matrix(0.049382716049382706,0,0,0.049382716049382706,62.07407407407405,0)" xlink:href="#cF"/><use transform="matrix(0.049382716049382706,0,0,0.049382716049382706,71.95061728395059,0)" xlink:href="#cM"/><use transform="matrix(0.049382716049382706,0,0,0.049382716049382706,75.85185185185182,0)" xlink:href="#cM"/><use transform="matrix(0.049382716049382706,0,0,0.049382716049382706,79.75308641975305,0)" xlink:href="#cN"/></g><g id="I"><use transform="matrix(0.049382716049382706,0,0,0.049382716049382706,0,0)" xlink:href="#cH"/><use transform="matrix(0.049382716049382706,0,0,0.049382716049382706,8.888888888888888,0)" xlink:href="#cG"/><use transform="matrix(0.049382716049382706,0,0,0.049382716049382706,18.76543209876543,0)" xlink:href="#aN"/><use transform="matrix(0.049382716049382706,0,0,0.049382716049382706,28.64197530864197,0)" xlink:href="#aP"/></g><g id="J"><use transform="matrix(0.049382716049382706,0,0,0.049382716049382706,0,0)" xlink:href="#aP"/><use transform="matrix(0.049382716049382706,0,0,0.049382716049382706,4.93827160493827,0)" xlink:href="#aM"/></g><path fill="#008a0e" d="M106-169C34-169 62-67 57 0H25v-261h32l-1 103c12-21 28-36 61-36 89 0 53 116 60 194h-32v-121c2-32-8-49-39-48" id="cO"/><g id="K"><use transform="matrix(0.049382716049382706,0,0,0.049382716049382706,0,0)" xlink:href="#aP"/><use transform="matrix(0.049382716049382706,0,0,0.049382716049382706,4.93827160493827,0)" xlink:href="#cO"/><use transform="matrix(0.049382716049382706,0,0,0.049382716049382706,14.814814814814811,0)" xlink:href="#cG"/></g><g id="L"><use transform="matrix(0.049382716049382706,0,0,0.049382716049382706,0,0)" xlink:href="#aL"/><use transform="matrix(0.049382716049382706,0,0,0.049382716049382706,14.765432098765428,0)" xlink:href="#aM"/><use transform="matrix(0.049382716049382706,0,0,0.049382716049382706,24.641975308641968,0)" xlink:href="#aN"/><use transform="matrix(0.049382716049382706,0,0,0.049382716049382706,34.518518518518505,0)" xlink:href="#aO"/><use transform="matrix(0.049382716049382706,0,0,0.049382716049382706,38.41975308641974,0)" xlink:href="#aP"/><use transform="matrix(0.049382716049382706,0,0,0.049382716049382706,43.35802469135801,0)" xlink:href="#aM"/><use transform="matrix(0.049382716049382706,0,0,0.049382716049382706,53.234567901234556,0)" xlink:href="#aQ"/></g><path fill="#008a0e" d="M108 0H70L1-190h34L89-25l56-165h34" id="cP"/><g id="M"><use transform="matrix(0.049382716049382706,0,0,0.049382716049382706,0,0)" xlink:href="#cH"/><use transform="matrix(0.049382716049382706,0,0,0.049382716049382706,8.888888888888888,0)" xlink:href="#cG"/><use transform="matrix(0.049382716049382706,0,0,0.049382716049382706,18.76543209876543,0)" xlink:href="#aQ"/><use transform="matrix(0.049382716049382706,0,0,0.049382716049382706,24.64197530864197,0)" xlink:href="#cP"/><use transform="matrix(0.049382716049382706,0,0,0.049382716049382706,33.53086419753086,0)" xlink:href="#aO"/><use transform="matrix(0.049382716049382706,0,0,0.049382716049382706,37.432098765432094,0)" xlink:href="#cJ"/><use transform="matrix(0.049382716049382706,0,0,0.049382716049382706,46.32098765432098,0)" xlink:href="#cG"/></g><g id="N"><use transform="matrix(0.049382716049382706,0,0,0.049382716049382706,0,0)" xlink:href="#cP"/><use transform="matrix(0.049382716049382706,0,0,0.049382716049382706,8.888888888888888,0)" xlink:href="#aO"/><use transform="matrix(0.049382716049382706,0,0,0.049382716049382706,12.790123456790122,0)" xlink:href="#cF"/></g><path fill="#008a0e" d="M233-177c-1 41-23 64-60 70L243 0h-38l-65-103H63V0H30v-248c88 3 205-21 203 71zM63-129c60-2 137 13 137-47 0-61-80-42-137-45v92" id="cQ"/><path fill="#008a0e" d="M30-248c87 1 191-15 191 75 0 78-77 80-158 76V0H30v-248zm33 125c57 0 124 11 124-50 0-59-68-47-124-48v98" id="cR"/><g id="O"><use transform="matrix(0.049382716049382706,0,0,0.049382716049382706,0,0)" xlink:href="#cQ"/><use transform="matrix(0.049382716049382706,0,0,0.049382716049382706,12.790123456790122,0)" xlink:href="#cR"/><use transform="matrix(0.049382716049382706,0,0,0.049382716049382706,24.64197530864197,0)" xlink:href="#cE"/></g><path fill="#008a0e" d="M114-157C55-157 80-60 75 0H25v-261h50l-1 109c12-26 28-41 61-42 86-1 58 113 63 194h-50c-7-57 23-157-34-157" id="cS"/><path fill="#008a0e" d="M185-48c-13 30-37 53-82 52C43 2 14-33 14-96s30-98 90-98c62 0 83 45 84 108H66c0 31 8 55 39 56 18 0 30-7 34-22zm-45-69c5-46-57-63-70-21-2 6-4 13-4 21h74" id="cT"/><path fill="#008a0e" d="M133-34C117-15 103 5 69 4 32 3 11-16 11-54c-1-60 55-63 116-61 1-26-3-47-28-47-18 1-26 9-28 27l-52-2c7-38 36-58 82-57s74 22 75 68l1 82c-1 14 12 18 25 15v27c-30 8-71 5-69-32zm-48 3c29 0 43-24 42-57-32 0-66-3-65 30 0 17 8 27 23 27" id="cU"/><path fill="#008a0e" d="M135-150c-39-12-60 13-60 57V0H25l-1-190h47c2 13-1 29 3 40 6-28 27-53 61-41v41" id="cV"/><path fill="#008a0e" d="M115-3C79 11 28 4 28-45v-112H4v-33h27l15-45h31v45h36v33H77v99c-1 23 16 31 38 25v30" id="cW"/><path fill="#008a0e" d="M135-194c52 0 70 43 70 98 0 56-19 99-73 100-30 1-46-15-58-35L72 0H24l1-261h50v104c11-23 29-37 60-37zM114-30c31 0 40-27 40-66 0-37-7-63-39-63s-41 28-41 65c0 36 8 64 40 64" id="cX"/><g id="P"><use transform="matrix(0.04938271604938272,0,0,0.04938271604938272,0,0)" xlink:href="#cS"/><use transform="matrix(0.04938271604938272,0,0,0.04938271604938272,10.814814814814815,0)" xlink:href="#cT"/><use transform="matrix(0.04938271604938272,0,0,0.04938271604938272,20.69135802469136,0)" xlink:href="#cU"/><use transform="matrix(0.04938271604938272,0,0,0.04938271604938272,30.567901234567906,0)" xlink:href="#cV"/><use transform="matrix(0.04938271604938272,0,0,0.04938271604938272,37.48148148148149,0)" xlink:href="#cW"/><use transform="matrix(0.04938271604938272,0,0,0.04938271604938272,43.35802469135803,0)" xlink:href="#cX"/><use transform="matrix(0.04938271604938272,0,0,0.04938271604938272,54.17283950617284,0)" xlink:href="#cT"/><use transform="matrix(0.04938271604938272,0,0,0.04938271604938272,64.0493827160494,0)" xlink:href="#cU"/><use transform="matrix(0.04938271604938272,0,0,0.04938271604938272,73.92592592592594,0)" xlink:href="#cW"/></g></defs></g></svg>